<?xml version="1.0" encoding="iso-8859-1"?>
<!-- Generator: Adobe Illustrator 19.0.0, SVG Export Plug-In . SVG Version: 6.00 Build 0)  -->
<svg version="1.1" id="Capa_1" xmlns="http://www.w3.org/2000/svg" xmlns:xlink="http://www.w3.org/1999/xlink" x="0px" y="0px"
	 viewBox="0 0 480.004 480.004" style="enable-background:new 0 0 480.004 480.004;" xml:space="preserve">
<g>
	<g>
		<path d="M240.002,64.004c-4.418,0-8-3.582-8-8s3.582-8,8-8s8,3.582,8,8h16c-0.042-10.134-6.445-19.15-16-22.528v-9.472h-16v9.472
			c-12.473,4.393-19.023,18.066-14.629,30.539c3.38,9.596,12.455,16.009,22.629,15.989c4.418,0,8,3.582,8,8s-3.582,8-8,8
			s-8-3.582-8-8h-16c0.042,10.134,6.445,19.15,16,22.528v9.472h16v-9.472c12.473-4.393,19.023-18.066,14.629-30.539
			C259.251,70.397,250.176,63.985,240.002,64.004z"/>
	</g>
</g>
<g>
	<g>
		<path d="M472.002,144.004c4.418,0,8-3.582,8-8v-48c-0.001-3.412-2.166-6.448-5.392-7.56l-232-80c-1.688-0.592-3.528-0.592-5.216,0
			l-232,80c-3.226,1.112-5.391,4.148-5.392,7.56v48c0,4.418,3.582,8,8,8h32v272h-32c-4.418,0-8,3.582-8,8v48c0,4.418,3.582,8,8,8
			h464c4.418,0,8-3.582,8-8v-48c0-4.418-3.582-8-8-8h-32v-272H472.002z M193.226,464.004H16.002v-32h182.56L193.226,464.004z
			 M56.002,160.004v-16h368v16H56.002z M424.002,176.004v240h-32v-240H424.002z M376.002,176.004v48h-272v-48H376.002z
			 M88.002,176.004v240h-32v-240H88.002z M209.45,464.004l1.328-8h58.448l1.328,8H209.45z M265.226,432.004l1.336,8h-53.12l1.336-8
			H265.226z M216.002,416.004v-80h48v80H216.002z M272.002,320.004h-64c-4.418,0-8,3.582-8,8v88h-96v-176h272v176h-96v-88
			C280.002,323.586,276.42,320.004,272.002,320.004z M464.002,432.004v32H286.778l-5.336-32H464.002z M16.002,128.004V93.708
			l224-77.24l224,77.24v34.296H16.002z"/>
	</g>
</g>
<g>
</g>
<g>
</g>
<g>
</g>
<g>
</g>
<g>
</g>
<g>
</g>
<g>
</g>
<g>
</g>
<g>
</g>
<g>
</g>
<g>
</g>
<g>
</g>
<g>
</g>
<g>
</g>
<g>
</g>
</svg>
