<?xml version="1.0" encoding="iso-8859-1"?>
<!-- Generator: Adobe Illustrator 19.0.0, SVG Export Plug-In . SVG Version: 6.00 Build 0)  -->
<svg version="1.1" id="Capa_1" xmlns="http://www.w3.org/2000/svg" xmlns:xlink="http://www.w3.org/1999/xlink" x="0px" y="0px"
	 viewBox="0 0 480 480" style="enable-background:new 0 0 480 480;" xml:space="preserve">
<g>
	<g>
		<path d="M272,80h-64c-4.418,0-8,3.582-8,8v160c0,4.418,3.582,8,8,8h64c4.418,0,8-3.582,8-8V88C280,83.582,276.418,80,272,80z
			 M232,240h-16v-64h16V240z M232,160h-16V96h16V160z M264,240h-16v-64h16V240z M264,160h-16V96h16V160z"/>
	</g>
</g>
<g>
	<g>
		<path d="M368,80h-64c-4.418,0-8,3.582-8,8v160c0,4.418,3.582,8,8,8h64c4.418,0,8-3.582,8-8V88C376,83.582,372.418,80,368,80z
			 M328,240h-16v-64h16V240z M328,160h-16V96h16V160z M360,240h-16v-64h16V240z M360,160h-16V96h16V160z"/>
	</g>
</g>
<g>
	<g>
		<path d="M176,80h-64c-4.418,0-8,3.582-8,8v160c0,4.418,3.582,8,8,8h64c4.418,0,8-3.582,8-8V88C184,83.582,180.418,80,176,80z
			 M136,240h-16v-64h16V240z M136,160h-16V96h16V160z M168,240h-16v-64h16V240z M168,160h-16V96h16V160z"/>
	</g>
</g>
<g>
	<g>
		<path d="M368,288h-64c-4.418,0-8,3.582-8,8v112c0,4.418,3.582,8,8,8h64c4.418,0,8-3.582,8-8V296C376,291.582,372.418,288,368,288z
			 M328,400h-16v-40h16V400z M328,344h-16v-40h16V344z M360,400h-16v-40h16V400z M360,344h-16v-40h16V344z"/>
	</g>
</g>
<g>
	<g>
		<path d="M176,288h-64c-4.418,0-8,3.582-8,8v112c0,4.418,3.582,8,8,8h64c4.418,0,8-3.582,8-8V296C184,291.582,180.418,288,176,288z
			 M136,400h-16v-40h16V400z M136,344h-16v-40h16V344z M168,400h-16v-40h16V400z M168,344h-16v-40h16V344z"/>
	</g>
</g>
<g>
	<g>
		<path d="M408,464V8c0-4.418-3.582-8-8-8H80c-4.418,0-8,3.582-8,8v456H40v16h400v-16H408z M264,464h-48V304h48V464z M392,464H280
			V296c0-4.418-3.582-8-8-8h-64c-4.418,0-8,3.582-8,8v168H88V64h304V464z M392,48H88V16h16v24h16V16h16v24h16V16h16v24h16V16h16v24
			h16V16h16v24h16V16h16v24h16V16h16v24h16V16h16v24h16V16h16v24h16V16h16V48z"/>
	</g>
</g>
<g>
</g>
<g>
</g>
<g>
</g>
<g>
</g>
<g>
</g>
<g>
</g>
<g>
</g>
<g>
</g>
<g>
</g>
<g>
</g>
<g>
</g>
<g>
</g>
<g>
</g>
<g>
</g>
<g>
</g>
</svg>
