<?xml version="1.0" encoding="iso-8859-1"?>
<!-- Generator: Adobe Illustrator 19.0.0, SVG Export Plug-In . SVG Version: 6.00 Build 0)  -->
<svg version="1.1" id="Capa_1" xmlns="http://www.w3.org/2000/svg" xmlns:xlink="http://www.w3.org/1999/xlink" x="0px" y="0px"
	 viewBox="0 0 480 480" style="enable-background:new 0 0 480 480;" xml:space="preserve">
<g>
	<g>
		<g>
			<rect x="176" y="128" width="128" height="16"/>
			<rect x="176" y="80" width="128" height="16"/>
			<rect x="176" y="176" width="128" height="16"/>
			<rect x="176" y="224" width="128" height="16"/>
			<rect x="176" y="272" width="128" height="16"/>
			<rect x="176" y="320" width="128" height="16"/>
			<path d="M456,464V192h8c4.418,0,8-3.582,8-8v-32c0-4.418-3.582-8-8-8H360V48h16c4.418,0,8-3.582,8-8V8c0-4.418-3.582-8-8-8H104
				c-4.418,0-8,3.582-8,8v32c0,4.418,3.582,8,8,8h16v96H16c-4.418,0-8,3.582-8,8v32c0,4.418,3.582,8,8,8h8v272H0v16h480v-16H456z
				 M456,160v16h-96v-16H456z M112,32V16h256v16H112z M24,160h96v16H24V160z M232,464h-40v-80h40V464z M288,464h-40v-80h40V464z
				 M440,224h-80v16h80v32h-80v16h80v32h-80v16h80v32h-80v16h80v32h-80v16h80v32h-88h-48v-88c0-4.418-3.582-8-8-8H184
				c-4.418,0-8,3.582-8,8v88H40v-32h80v-16H40v-32h80v-16H40v-32h80v-16H40v-32h80v-16H40v-32h80v-16H40v-32h88c4.418,0,8-3.582,8-8
				V48h208v136c0,4.418,3.582,8,8,8h88V224z"/>
		</g>
	</g>
</g>
<g>
</g>
<g>
</g>
<g>
</g>
<g>
</g>
<g>
</g>
<g>
</g>
<g>
</g>
<g>
</g>
<g>
</g>
<g>
</g>
<g>
</g>
<g>
</g>
<g>
</g>
<g>
</g>
<g>
</g>
</svg>
