<?xml version="1.0" encoding="iso-8859-1"?>
<!-- Generator: Adobe Illustrator 19.0.0, SVG Export Plug-In . SVG Version: 6.00 Build 0)  -->
<svg version="1.1" id="Capa_1" xmlns="http://www.w3.org/2000/svg" xmlns:xlink="http://www.w3.org/1999/xlink" x="0px" y="0px"
	 viewBox="0 0 480 480" style="enable-background:new 0 0 480 480;" xml:space="preserve">
<g>
	<g>
		<path d="M384,256h-48c-4.418,0-8,3.582-8,8v80c0,4.418,3.582,8,8,8h48c4.418,0,8-3.582,8-8v-80C392,259.582,388.418,256,384,256z
			 M352,336h-8v-24h8V336z M352,296h-8v-24h8V296z M376,336h-8v-24h8V336z M376,296h-8v-24h8V296z"/>
	</g>
</g>
<g>
	<g>
		<path d="M144,256H96c-4.418,0-8,3.582-8,8v80c0,4.418,3.582,8,8,8h48c4.418,0,8-3.582,8-8v-80C152,259.582,148.418,256,144,256z
			 M112,336h-8v-24h8V336z M112,296h-8v-24h8V296z M136,336h-8v-24h8V336z M136,296h-8v-24h8V296z"/>
	</g>
</g>
<g>
	<g>
		<path d="M256,104h-32c-4.418,0-8,3.582-8,8v64c0,4.418,3.582,8,8,8h32c4.418,0,8-3.582,8-8v-64C264,107.582,260.418,104,256,104z
			 M248,168h-16v-48h16V168z"/>
	</g>
</g>
<g>
	<g>
		<path d="M256,200h-32c-4.418,0-8,3.582-8,8v64c0,4.418,3.582,8,8,8h32c4.418,0,8-3.582,8-8v-64C264,203.582,260.418,200,256,200z
			 M248,264h-16v-48h16V264z"/>
	</g>
</g>
<g>
	<g>
		<path d="M256,296h-32c-4.418,0-8,3.582-8,8v40c0,4.418,3.582,8,8,8h32c4.418,0,8-3.582,8-8v-40C264,299.582,260.418,296,256,296z
			 M248,336h-16v-24h16V336z"/>
	</g>
</g>
<g>
	<g>
		<path d="M424,464V240h8c4.418,0,8-3.582,8-8v-32c0-4.418-3.582-8-8-8H312V88h8c4.418,0,8-3.582,8-8V8c0-4.418-3.582-8-8-8h-32
			c-4.418,0-8,3.582-8,8v24h-16V8c0-4.418-3.582-8-8-8h-32c-4.418,0-8,3.582-8,8v24h-16V8c0-4.418-3.582-8-8-8h-32
			c-4.418,0-8,3.582-8,8v72c0,4.418,3.582,8,8,8h8v104H48c-4.418,0-8,3.582-8,8v32c0,4.418,3.582,8,8,8h8v224H24v16h432v-16H424z
			 M168,464H72V240h96V464z M168,224H56v-16h112V224z M424,208v16H312v-16H424z M168,16h16v24c0,4.418,3.582,8,8,8h32
			c4.418,0,8-3.582,8-8V16h16v24c0,4.418,3.582,8,8,8h32c4.418,0,8-3.582,8-8V16h16v56H168V16z M256,464h-32v-80h32V464z M296,464
			h-24v-88c0-4.418-3.582-8-8-8h-48c-4.418,0-8,3.582-8,8v88h-24V88h112V464z M408,464h-96V240h96V464z"/>
	</g>
</g>
<g>
</g>
<g>
</g>
<g>
</g>
<g>
</g>
<g>
</g>
<g>
</g>
<g>
</g>
<g>
</g>
<g>
</g>
<g>
</g>
<g>
</g>
<g>
</g>
<g>
</g>
<g>
</g>
<g>
</g>
</svg>
