<?xml version="1.0" encoding="iso-8859-1"?>
<!-- Generator: Adobe Illustrator 19.0.0, SVG Export Plug-In . SVG Version: 6.00 Build 0)  -->
<svg version="1.1" id="Capa_1" xmlns="http://www.w3.org/2000/svg" xmlns:xlink="http://www.w3.org/1999/xlink" x="0px" y="0px"
	 viewBox="0 0 480 480" style="enable-background:new 0 0 480 480;" xml:space="preserve">
<g>
	<g>
		<g>
			<path d="M80,239.864h32c4.418,0,8-3.582,8-8v-80c0-4.418-3.582-8-8-8H80c-4.418,0-8,3.582-8,8v80
				C72,236.282,75.582,239.864,80,239.864z M88,159.864h16v64H88V159.864z"/>
			<path d="M80,351.864h32c4.418,0,8-3.582,8-8v-80c0-4.418-3.582-8-8-8H80c-4.418,0-8,3.582-8,8v80
				C72,348.282,75.582,351.864,80,351.864z M88,271.864h16v64H88V271.864z"/>
			<path d="M176,351.864h32c4.418,0,8-3.582,8-8v-80c0-4.418-3.582-8-8-8h-32c-4.418,0-8,3.582-8,8v80
				C168,348.282,171.582,351.864,176,351.864z M184,271.864h16v64h-16V271.864z"/>
			<path d="M240,351.864h32c4.418,0,8-3.582,8-8v-80c0-4.418-3.582-8-8-8h-32c-4.418,0-8,3.582-8,8v80
				C232,348.282,235.582,351.864,240,351.864z M248,271.864h16v64h-16V271.864z"/>
			<path d="M304,351.864h32c4.418,0,8-3.582,8-8v-80c0-4.418-3.582-8-8-8h-32c-4.418,0-8,3.582-8,8v80
				C296,348.282,299.582,351.864,304,351.864z M312,271.864h16v64h-16V271.864z"/>
			<path d="M368,351.864h32c4.418,0,8-3.582,8-8v-80c0-4.418-3.582-8-8-8h-32c-4.418,0-8,3.582-8,8v80
				C360,348.282,363.582,351.864,368,351.864z M376,271.864h16v64h-16V271.864z"/>
			<path d="M304,447.864h32c4.418,0,8-3.582,8-8v-48c0-4.418-3.582-8-8-8h-32c-4.418,0-8,3.582-8,8v48
				C296,444.282,299.582,447.864,304,447.864z M312,399.864h16v32h-16V399.864z"/>
			<path d="M368,447.864h32c4.418,0,8-3.582,8-8v-48c0-4.418-3.582-8-8-8h-32c-4.418,0-8,3.582-8,8v48
				C360,444.282,363.582,447.864,368,447.864z M376,399.864h16v32h-16V399.864z"/>
			<path d="M440,463.864v-248c0-4.418-3.582-8-8-8H152v-80h8c4.418,0,8-3.582,8-8v-32c0-4.418-3.582-8-8-8h-11.472l-45.672-76.12
				c-2.603-3.786-7.783-4.746-11.57-2.142c-0.839,0.577-1.565,1.303-2.142,2.142l-45.672,76.12H32c-4.418,0-8,3.582-8,8v32
				c0,4.418,3.582,8,8,8h8v336H0v16h480v-16H440z M96,23.408l33.864,56.456H62.136L96,23.408z M40,95.864h112v16H40V95.864z
				 M112,463.864H80v-64h32V463.864z M136,463.864h-8v-72c0-4.418-3.582-8-8-8H72c-4.418,0-8,3.582-8,8v72h-8v-336h80V463.864z
				 M216,463.864h-32v-64h32V463.864z M264,463.864h-32v-64h32V463.864z M424,463.864H280v-72c0-4.418-3.582-8-8-8h-96
				c-4.418,0-8,3.582-8,8v72h-16v-240h272V463.864z"/>
		</g>
	</g>
</g>
<g>
</g>
<g>
</g>
<g>
</g>
<g>
</g>
<g>
</g>
<g>
</g>
<g>
</g>
<g>
</g>
<g>
</g>
<g>
</g>
<g>
</g>
<g>
</g>
<g>
</g>
<g>
</g>
<g>
</g>
</svg>
