<?xml version="1.0" encoding="iso-8859-1"?>
<!-- Generator: Adobe Illustrator 19.0.0, SVG Export Plug-In . SVG Version: 6.00 Build 0)  -->
<svg version="1.1" id="Capa_1" xmlns="http://www.w3.org/2000/svg" xmlns:xlink="http://www.w3.org/1999/xlink" x="0px" y="0px"
	 viewBox="0 0 480 480" style="enable-background:new 0 0 480 480;" xml:space="preserve">
<g>
	<g>
		<g>
			<path d="M428,160H308V48h16c4.418,0,8-3.582,8-8V8c0-4.418-3.582-8-8-8H52c-4.418,0-8,3.582-8,8v32c0,4.418,3.582,8,8,8h16v424
				c0,4.418,3.582,8,8,8h352c4.418,0,8-3.582,8-8V168C436,163.582,432.418,160,428,160z M60,32V16h256v16H60z M236,464h-96V352h96
				V464z M292,464h-40V344c0-4.418-3.582-8-8-8H132c-4.418,0-8,3.582-8,8v120H84V48h208V464z M420,464H308V176h112V464z"/>
			<rect x="100" y="80" width="16" height="16"/>
			<rect x="132" y="80" width="16" height="16"/>
			<rect x="164" y="80" width="16" height="16"/>
			<rect x="196" y="80" width="16" height="16"/>
			<rect x="228" y="80" width="16" height="16"/>
			<rect x="260" y="80" width="16" height="16"/>
			<rect x="100" y="112" width="16" height="16"/>
			<rect x="132" y="112" width="16" height="16"/>
			<rect x="164" y="112" width="16" height="16"/>
			<rect x="196" y="112" width="16" height="16"/>
			<rect x="228" y="112" width="16" height="16"/>
			<rect x="260" y="112" width="16" height="16"/>
			<rect x="100" y="144" width="16" height="16"/>
			<rect x="132" y="144" width="16" height="16"/>
			<rect x="164" y="144" width="16" height="16"/>
			<rect x="196" y="144" width="16" height="16"/>
			<rect x="228" y="144" width="16" height="16"/>
			<rect x="260" y="144" width="16" height="16"/>
			<rect x="100" y="176" width="16" height="16"/>
			<rect x="132" y="176" width="16" height="16"/>
			<rect x="164" y="176" width="16" height="16"/>
			<rect x="196" y="176" width="16" height="16"/>
			<rect x="228" y="176" width="16" height="16"/>
			<rect x="260" y="176" width="16" height="16"/>
			<rect x="100" y="208" width="16" height="16"/>
			<rect x="132" y="208" width="16" height="16"/>
			<rect x="164" y="208" width="16" height="16"/>
			<rect x="196" y="208" width="16" height="16"/>
			<rect x="228" y="208" width="16" height="16"/>
			<rect x="260" y="208" width="16" height="16"/>
			<rect x="100" y="240" width="16" height="16"/>
			<rect x="132" y="240" width="16" height="16"/>
			<rect x="164" y="240" width="16" height="16"/>
			<rect x="196" y="240" width="16" height="16"/>
			<rect x="228" y="240" width="16" height="16"/>
			<rect x="260" y="240" width="16" height="16"/>
			<rect x="100" y="272" width="16" height="16"/>
			<rect x="132" y="272" width="16" height="16"/>
			<rect x="164" y="272" width="16" height="16"/>
			<rect x="196" y="272" width="16" height="16"/>
			<rect x="228" y="272" width="16" height="16"/>
			<rect x="260" y="272" width="16" height="16"/>
			<rect x="100" y="304" width="16" height="16"/>
			<rect x="132" y="304" width="16" height="16"/>
			<rect x="164" y="304" width="16" height="16"/>
			<rect x="196" y="304" width="16" height="16"/>
			<rect x="228" y="304" width="16" height="16"/>
			<rect x="260" y="304" width="16" height="16"/>
			<rect x="324" y="208" width="80" height="16"/>
			<rect x="324" y="240" width="80" height="16"/>
			<rect x="324" y="272" width="80" height="16"/>
			<rect x="324" y="304" width="80" height="16"/>
			<rect x="324" y="336" width="80" height="16"/>
			<rect x="324" y="368" width="80" height="16"/>
			<rect x="324" y="400" width="80" height="16"/>
		</g>
	</g>
</g>
<g>
</g>
<g>
</g>
<g>
</g>
<g>
</g>
<g>
</g>
<g>
</g>
<g>
</g>
<g>
</g>
<g>
</g>
<g>
</g>
<g>
</g>
<g>
</g>
<g>
</g>
<g>
</g>
<g>
</g>
</svg>
