<?xml version="1.0" encoding="iso-8859-1"?>
<!-- Generator: Adobe Illustrator 19.0.0, SVG Export Plug-In . SVG Version: 6.00 Build 0)  -->
<svg version="1.1" id="Capa_1" xmlns="http://www.w3.org/2000/svg" xmlns:xlink="http://www.w3.org/1999/xlink" x="0px" y="0px"
	 viewBox="0 0 480 480" style="enable-background:new 0 0 480 480;" xml:space="preserve">
<g>
	<g>
		<g>
			<path d="M440,464V224h16c4.418,0,8-3.582,8-8v-32c0-4.418-3.582-8-8-8h-16v-48h8c4.418,0,8-3.582,8-8V88c0-4.418-3.582-8-8-8h-8
				V8c0-4.418-3.582-8-8-8H48c-4.418,0-8,3.582-8,8v72h-8c-4.418,0-8,3.582-8,8v32c0,4.418,3.582,8,8,8h8v48H24
				c-4.418,0-8,3.582-8,8v32c0,4.418,3.582,8,8,8h16v240H0v16h480v-16H440z M56,16h368v64H56V16z M40,96h400v16H40V96z M88,152v-24
				h16v24h16v-24h16v24h16v-24h16v24h16v-24h16v24h16v-24h16v24h16v-24h16v24h16v-24h16v24h16v-24h16v24h16v-24h16v24h16v-24h16v24
				h16v-24h16v48H56v-48h16v24H88z M32,208v-16h416v16H32z M232,464h-64V352h64V464z M312,464h-64V352h64V464z M424,464h-96V344
				c0-4.418-3.582-8-8-8H160c-4.418,0-8,3.582-8,8v120H56V224h368V464z"/>
			<path d="M352,432h48c4.418,0,8-3.582,8-8v-80c0-4.418-3.582-8-8-8h-48c-4.418,0-8,3.582-8,8v80C344,428.418,347.582,432,352,432z
				 M360,352h32v64h-32V352z"/>
			<path d="M80,432h48c4.418,0,8-3.582,8-8v-80c0-4.418-3.582-8-8-8H80c-4.418,0-8,3.582-8,8v80C72,428.418,75.582,432,80,432z
				 M88,352h32v64H88V352z"/>
			<path d="M80,320h48c4.418,0,8-3.582,8-8v-48c0-4.418-3.582-8-8-8H80c-4.418,0-8,3.582-8,8v48C72,316.418,75.582,320,80,320z
				 M88,272h32v32H88V272z"/>
			<path d="M160,320h160c4.418,0,8-3.582,8-8v-48c0-4.418-3.582-8-8-8H160c-4.418,0-8,3.582-8,8v48C152,316.418,155.582,320,160,320
				z M248,272h64v8h-64V272z M248,296h64v8h-64V296z M168,272h64v8h-64V272z M168,296h64v8h-64V296z"/>
			<path d="M352,320h48c4.418,0,8-3.582,8-8v-48c0-4.418-3.582-8-8-8h-48c-4.418,0-8,3.582-8,8v48C344,316.418,347.582,320,352,320z
				 M360,272h32v32h-32V272z"/>
		</g>
	</g>
</g>
<g>
</g>
<g>
</g>
<g>
</g>
<g>
</g>
<g>
</g>
<g>
</g>
<g>
</g>
<g>
</g>
<g>
</g>
<g>
</g>
<g>
</g>
<g>
</g>
<g>
</g>
<g>
</g>
<g>
</g>
</svg>
