<?xml version="1.0" encoding="iso-8859-1"?>
<!-- Generator: Adobe Illustrator 19.0.0, SVG Export Plug-In . SVG Version: 6.00 Build 0)  -->
<svg version="1.1" id="Capa_1" xmlns="http://www.w3.org/2000/svg" xmlns:xlink="http://www.w3.org/1999/xlink" x="0px" y="0px"
	 viewBox="0 0 480 480" style="enable-background:new 0 0 480 480;" xml:space="preserve">
<g>
	<g>
		<path d="M216,111.999c-26.51,0-48,21.49-48,48c0,26.51,21.49,48,48,48c26.499-0.026,47.974-21.501,48-48
			C264,133.489,242.51,111.999,216,111.999z M216,191.999c-17.673,0-32-14.327-32-32s14.327-32,32-32s32,14.327,32,32
			S233.673,191.999,216,191.999z"/>
	</g>
</g>
<g>
	<g>
		<path d="M200,239.999h-64c-4.418,0-8,3.582-8,8v80c0,4.418,3.582,8,8,8h64c4.418,0,8-3.582,8-8v-80
			C208,243.581,204.418,239.999,200,239.999z M160,319.999h-16v-24h16V319.999z M160,279.999h-16v-24h16V279.999z M192,319.999h-16
			v-24h16V319.999z M192,279.999h-16v-24h16V279.999z"/>
	</g>
</g>
<g>
	<g>
		<path d="M296,239.999h-64c-4.418,0-8,3.582-8,8v80c0,4.418,3.582,8,8,8h64c4.418,0,8-3.582,8-8v-80
			C304,243.581,300.418,239.999,296,239.999z M256,319.999h-16v-24h16V319.999z M256,279.999h-16v-24h16V279.999z M288,319.999h-16
			v-24h16V319.999z M288,279.999h-16v-24h16V279.999z"/>
	</g>
</g>
<g>
	<g>
		<path d="M296,351.999h-64c-4.418,0-8,3.582-8,8v48c0,4.418,3.582,8,8,8h64c4.418,0,8-3.582,8-8v-48
			C304,355.581,300.418,351.999,296,351.999z M256,399.999h-16v-8h16V399.999z M256,375.999h-16v-8h16V375.999z M288,399.999h-16v-8
			h16V399.999z M288,375.999h-16v-8h16V375.999z"/>
	</g>
</g>
<g>
	<g>
		<path d="M424,463.999v-41.416c15.364-6.481,24.979-21.938,24-38.584c0-22.056-14.352-40-32-40s-32,17.944-32,40
			c-0.979,16.646,8.636,32.103,24,38.584v41.416h-72V187.311l42.344,42.344c3.124,3.123,8.188,3.123,11.312,0l24-24
			c3.123-3.124,3.123-8.188,0-11.312l-192-192c-3.124-3.123-8.188-3.123-11.312,0l-192,192c-3.123,3.124-3.123,8.188,0,11.312l24,24
			c3.124,3.123,8.188,3.123,11.312,0L96,187.311v276.688H0v16h480v-16H424z M48,212.687l-12.688-12.688L216,19.311l180.688,180.688
			L384,212.687L221.656,50.343c-3.124-3.123-8.188-3.123-11.312,0L48,212.687z M192,463.999h-48v-96h48V463.999z M320,463.999H208
			v-104c0-4.418-3.582-8-8-8h-64c-4.418,0-8,3.582-8,8v104h-16V171.311l104-104l104,104V463.999z M408,404.559
			c-5.373-5.467-8.265-12.9-8-20.56c0-13.008,7.328-24,16-24s16,10.992,16,24c0.259,7.659-2.632,15.09-8,20.56v-12.56h-16V404.559z"
			/>
	</g>
</g>
<g>
</g>
<g>
</g>
<g>
</g>
<g>
</g>
<g>
</g>
<g>
</g>
<g>
</g>
<g>
</g>
<g>
</g>
<g>
</g>
<g>
</g>
<g>
</g>
<g>
</g>
<g>
</g>
<g>
</g>
</svg>
