<?xml version="1.0" encoding="iso-8859-1"?>
<!-- Generator: Adobe Illustrator 19.0.0, SVG Export Plug-In . SVG Version: 6.00 Build 0)  -->
<svg version="1.1" id="Capa_1" xmlns="http://www.w3.org/2000/svg" xmlns:xlink="http://www.w3.org/1999/xlink" x="0px" y="0px"
	 viewBox="0 0 480.039 480.039" style="enable-background:new 0 0 480.039 480.039;" xml:space="preserve">
<g>
	<g>
		<g>
			<path d="M477.752,242.369v0.04L432,195.081V55.969c0-4.418-3.582-8-8-8h-64c-4.418,0-8,3.582-8,8v56.352L245.752,2.409
				c-3.2-3.12-8.304-3.12-11.504,0l-232,240c-3.071,3.177-2.985,8.241,0.192,11.312c1.492,1.442,3.485,2.248,5.56,2.248h40v216
				c0,4.418,3.582,8,8,8h368c4.418,0,8-3.582,8-8v-216h40c4.418,0.021,8.017-3.543,8.039-7.961
				C480.049,245.901,479.227,243.874,477.752,242.369z M368,63.969h48v114.56l-48-49.656V63.969z M312,463.969H168v-80h144V463.969z
				 M416,287.969h-40v16h40v32h-40v16h40v32h-40v16h40v32h-40v16h40v16h-88v-88c0-4.418-3.582-8-8-8H160c-4.418,0-8,3.582-8,8v88H64
				v-16h40v-16H64v-32h40v-16H64v-32h40v-16H64v-32h40v-16H64v-32h352V287.969z M73.952,239.969L240,65.641l166.048,174.328H73.952z
				 M428.152,239.969l-182.36-191.44c-3.212-3.168-8.372-3.168-11.584,0l-182.36,191.44H26.856L240,19.481l213.144,220.488H428.152z
				"/>
			<path d="M160,351.969h160c4.418,0,8-3.582,8-8c0-39.696-39.48-72-88-72c-48.52,0-88,32.304-88,72
				C152,348.388,155.582,351.969,160,351.969z M248,288.353c32.552,2.816,58.64,22.544,63.264,47.616H248V288.353z M232,288.353
				v47.616h-63.264C173.36,310.897,199.448,291.169,232,288.353z"/>
			<path d="M192,167.969c0,26.51,21.49,48,48,48c26.51,0,48-21.49,48-48c0-26.51-21.49-48-48-48
				C213.501,119.996,192.026,141.471,192,167.969z M232,198.833c-11.195-2.927-19.937-11.669-22.864-22.864H232V198.833z
				 M232,159.969h-22.864c2.927-11.195,11.669-19.937,22.864-22.864V159.969z M248,137.105
				c11.195,2.927,19.937,11.669,22.864,22.864H248V137.105z M248,175.969h22.864c-2.927,11.195-11.669,19.937-22.864,22.864V175.969
				z"/>
		</g>
	</g>
</g>
<g>
</g>
<g>
</g>
<g>
</g>
<g>
</g>
<g>
</g>
<g>
</g>
<g>
</g>
<g>
</g>
<g>
</g>
<g>
</g>
<g>
</g>
<g>
</g>
<g>
</g>
<g>
</g>
<g>
</g>
</svg>
