<?xml version="1.0" encoding="iso-8859-1"?>
<!-- Generator: Adobe Illustrator 19.0.0, SVG Export Plug-In . SVG Version: 6.00 Build 0)  -->
<svg version="1.1" id="Capa_1" xmlns="http://www.w3.org/2000/svg" xmlns:xlink="http://www.w3.org/1999/xlink" x="0px" y="0px"
	 viewBox="0 0 480 480" style="enable-background:new 0 0 480 480;" xml:space="preserve">
<g>
	<g>
		<path d="M472,432h-32V224h16c4.418,0,8-3.582,8-8v-32c0-4.418-3.582-8-8-8h-16v-32c4.418,0,8-3.582,8-8
			c0-58.4-79.08-105.048-184-111.272V8c0-4.418-3.582-8-8-8h-32c-4.418,0-8,3.582-8,8v16.728C111.08,30.952,32,77.6,32,136
			c0,4.418,3.582,8,8,8v32H24c-4.418,0-8,3.582-8,8v32c0,4.418,3.582,8,8,8h16v208H8c-4.418,0-8,3.582-8,8v32c0,4.418,3.582,8,8,8
			h464c4.418,0,8-3.582,8-8v-32C480,435.582,476.418,432,472,432z M232,16h16v8.104c-2.656-0.048-5.312-0.104-8-0.104
			s-5.344,0.056-8,0.104V16z M240,40c98.696,0,182.864,39.536,191.304,88H48.696C57.136,79.536,141.304,40,240,40z M88,168v-24h16
			v24h16v-24h16v24h16v-24h16v24h16v-24h16v24h16v-24h16v24h16v-24h16v24h16v-24h16v24h16v-24h16v24h16v-24h16v24h16v-24h16v24h16
			v-24h16v32H56v-32h16v24H88z M32,208v-16h416v16H32z M248,304h-16c-30.913,0.035-55.965,25.087-56,56v72H56V224h32v40
			c0,4.418,3.582,8,8,8h32c4.418,0,8-3.582,8-8v-40h16v40c0,4.418,3.582,8,8,8h32c4.418,0,8-3.582,8-8v-40h16v40
			c0,4.418,3.582,8,8,8h32c4.418,0,8-3.582,8-8v-40h16v40c0,4.418,3.582,8,8,8h32c4.418,0,8-3.582,8-8v-40h16v40
			c0,4.418,3.582,8,8,8h32c4.418,0,8-3.582,8-8v-40h32v208H304v-72C303.965,329.087,278.913,304.035,248,304z M288,360v72h-96v-72
			c0.026-22.08,17.92-39.974,40-40h16C270.08,320.026,287.974,337.92,288,360z M104,256v-32h16v32H104z M168,256v-32h16v32H168z
			 M232,256v-32h16v32H232z M296,256v-32h16v32H296z M360,256v-32h16v32H360z M464,464H16v-16h448V464z"/>
	</g>
</g>
<g>
</g>
<g>
</g>
<g>
</g>
<g>
</g>
<g>
</g>
<g>
</g>
<g>
</g>
<g>
</g>
<g>
</g>
<g>
</g>
<g>
</g>
<g>
</g>
<g>
</g>
<g>
</g>
<g>
</g>
</svg>
