<?xml version="1.0" encoding="iso-8859-1"?>
<!-- Generator: Adobe Illustrator 19.0.0, SVG Export Plug-In . SVG Version: 6.00 Build 0)  -->
<svg version="1.1" id="Capa_1" xmlns="http://www.w3.org/2000/svg" xmlns:xlink="http://www.w3.org/1999/xlink" x="0px" y="0px"
	 viewBox="0 0 480 480" style="enable-background:new 0 0 480 480;" xml:space="preserve">
<g>
	<g>
		<rect x="176" y="224" width="128" height="16"/>
	</g>
</g>
<g>
	<g>
		<rect x="176" y="272" width="128" height="16"/>
	</g>
</g>
<g>
	<g>
		<path d="M456,464V192h8c4.418,0,8-3.582,8-8v-32c0-4.418-3.582-8-8-8H360V96h16c4.418,0,8-3.582,8-8V56c0-4.418-3.582-8-8-8h-16V8
			c0-4.418-3.582-8-8-8H128c-4.418,0-8,3.582-8,8v40h-16c-4.418,0-8,3.582-8,8v32c0,4.418,3.582,8,8,8h16v48H16
			c-4.418,0-8,3.582-8,8v32c0,4.418,3.582,8,8,8h8v272H0v16h480v-16H456z M120,464H40v-32h48v-16H40v-32h48v-16H40v-32h48v-16H40
			v-32h48v-16H40v-32h48v-16H40v-32h80V464z M120,176H24v-16h96V176z M456,160v16h-96v-16H456z M136,16h208v32H136V16z M112,80V64
			h256v16H112z M232,464h-40V336h40V464z M288,464h-40V336h40V464z M344,464h-40V328c0-4.418-3.582-8-8-8H184c-4.418,0-8,3.582-8,8
			v136h-40V96h208V464z M440,224h-48v16h48v32h-48v16h48v32h-48v16h48v32h-48v16h48v32h-48v16h48v32h-80V192h80V224z"/>
	</g>
</g>
<g>
	<g>
		<path d="M240,112c-26.51,0-48,21.49-48,48c0.026,26.499,21.501,47.974,48,48c26.51,0,48-21.49,48-48
			C288,133.49,266.51,112,240,112z M240,192c-17.673,0-32-14.327-32-32s14.327-32,32-32c17.673,0,32,14.327,32,32
			S257.673,192,240,192z"/>
	</g>
</g>
<g>
	<g>
		<path d="M248,152v-16h-16v24c0,4.418,3.582,8,8,8h24v-16H248z"/>
	</g>
</g>
<g>
</g>
<g>
</g>
<g>
</g>
<g>
</g>
<g>
</g>
<g>
</g>
<g>
</g>
<g>
</g>
<g>
</g>
<g>
</g>
<g>
</g>
<g>
</g>
<g>
</g>
<g>
</g>
<g>
</g>
</svg>
