<?xml version="1.0" encoding="iso-8859-1"?>
<!-- Generator: Adobe Illustrator 19.0.0, SVG Export Plug-In . SVG Version: 6.00 Build 0)  -->
<svg version="1.1" id="Capa_1" xmlns="http://www.w3.org/2000/svg" xmlns:xlink="http://www.w3.org/1999/xlink" x="0px" y="0px"
	 viewBox="0 0 480.032 480.032" style="enable-background:new 0 0 480.032 480.032;" xml:space="preserve">
<g>
	<g>
		<path d="M476.816,257.632l-228.8-173.6v-6.608l74.976-29.984c4.105-1.635,6.107-6.288,4.471-10.393
			c-0.813-2.041-2.43-3.658-4.471-4.471l-80-32c-4.101-1.644-8.758,0.349-10.402,4.45c-0.383,0.956-0.578,1.977-0.574,3.006v76
			l-228.8,173.6c-3.535,2.651-4.251,7.665-1.6,11.2c1.511,2.014,3.882,3.2,6.4,3.2h0.8c3.827,18.611,20.199,31.976,39.2,32
			c2.69-0.028,5.371-0.331,8-0.904v168.904c0,4.418,3.582,8,8,8h352c4.418,0,8-3.582,8-8V303.12c2.628,0.579,5.309,0.885,8,0.912
			c19.001-0.024,35.373-13.389,39.2-32h0.8c4.418,0,8-3.582,8-8C480.016,261.514,478.831,259.143,476.816,257.632z M248.016,19.848
			l50.464,20.184l-50.464,20.184V19.848z M240.016,98.072l208.216,157.96H31.8L240.016,98.072z M390.544,272.032
			c-4.335,12.442-17.935,19.014-30.376,14.68c-6.877-2.396-12.284-7.802-14.68-14.68H390.544z M326.544,272.032
			c-4.335,12.442-17.935,19.014-30.376,14.68c-6.877-2.396-12.284-7.802-14.68-14.68H326.544z M262.544,272.032
			c-4.335,12.442-17.935,19.014-30.376,14.68c-6.877-2.396-12.284-7.802-14.68-14.68H262.544z M198.544,272.032
			c-4.335,12.442-17.935,19.014-30.376,14.68c-6.877-2.396-12.284-7.802-14.68-14.68H198.544z M134.648,272.032
			c-4.411,12.499-18.12,19.056-30.619,14.645c-6.845-2.416-12.229-7.8-14.645-14.645H134.648z M40.168,286.712
			c-6.882-2.389-12.291-7.798-14.68-14.68h44.968C66.146,284.45,52.585,291.022,40.168,286.712z M114.984,464.032
			c13.999-5.479,27.646-11.816,40.864-18.976c42.76-23.328,71.2-51.856,84.168-83.92c12.936,32.064,41.408,60.592,84.168,83.92
			c13.218,7.16,26.865,13.497,40.864,18.976H114.984z M408.016,461.632c-36-10.208-160-51.896-160-141.6c0-4.418-3.582-8-8-8
			s-8,3.582-8,8c0,89.6-124,131.36-160,141.6V295.968c3.063-2.303,5.779-5.035,8.064-8.112c12.95,17.641,37.748,21.444,55.389,8.494
			c3.271-2.401,6.153-5.29,8.547-8.566c12.913,17.673,37.708,21.532,55.382,8.618c3.3-2.411,6.207-5.318,8.618-8.618
			c12.913,17.673,37.708,21.532,55.382,8.618c3.3-2.411,6.207-5.318,8.618-8.618c12.913,17.673,37.708,21.532,55.382,8.618
			c3.3-2.411,6.207-5.318,8.618-8.618c12.915,17.672,37.711,21.527,55.383,8.612c3.27-2.39,6.155-5.268,8.554-8.532
			c2.287,3.073,5.003,5.802,8.064,8.104V461.632z M432.016,288.032c-10.115-0.01-19.11-6.435-22.4-16h44.968
			C451.201,281.601,442.165,288.007,432.016,288.032z"/>
	</g>
</g>
<g>
</g>
<g>
</g>
<g>
</g>
<g>
</g>
<g>
</g>
<g>
</g>
<g>
</g>
<g>
</g>
<g>
</g>
<g>
</g>
<g>
</g>
<g>
</g>
<g>
</g>
<g>
</g>
<g>
</g>
</svg>
