<?xml version="1.0" encoding="iso-8859-1"?>
<!-- Generator: Adobe Illustrator 19.0.0, SVG Export Plug-In . SVG Version: 6.00 Build 0)  -->
<svg version="1.1" id="Capa_1" xmlns="http://www.w3.org/2000/svg" xmlns:xlink="http://www.w3.org/1999/xlink" x="0px" y="0px"
	 viewBox="0 0 479.997 479.997" style="enable-background:new 0 0 479.997 479.997;" xml:space="preserve">
<g>
	<g>
		<g>
			<path d="M167.999,175.997h144c4.418,0,8-3.582,8-8v-32c0-4.418-3.582-8-8-8h-144c-4.418,0-8,3.582-8,8v32
				C159.999,172.416,163.58,175.997,167.999,175.997z M175.999,143.997h128v16h-128V143.997z"/>
			<path d="M167.999,239.997h144c4.418,0,8-3.582,8-8v-32c0-4.418-3.582-8-8-8h-144c-4.418,0-8,3.582-8,8v32
				C159.999,236.416,163.58,239.997,167.999,239.997z M175.999,207.997h128v16h-128V207.997z"/>
			<path d="M167.999,303.997h144c4.418,0,8-3.582,8-8v-32c0-4.418-3.582-8-8-8h-144c-4.418,0-8,3.582-8,8v32
				C159.999,300.416,163.58,303.997,167.999,303.997z M175.999,271.997h128v16h-128V271.997z"/>
			<path d="M167.999,367.997h144c4.418,0,8-3.582,8-8v-32c0-4.418-3.582-8-8-8h-144c-4.418,0-8,3.582-8,8v32
				C159.999,364.416,163.58,367.997,167.999,367.997z M175.999,335.997h128v16h-128V335.997z"/>
			<path d="M351.999,463.997v-352h16c4.418,0,8-3.582,8-8v-32c0-4.418-3.582-8-8-8h-13.88L243.999,1.053
				c-2.459-1.405-5.477-1.405-7.936,0L125.879,63.997h-13.88c-4.418,0-8,3.582-8,8v32c0,4.418,3.582,8,8,8h16v352h-80v16h384v-16
				H351.999z M239.999,17.205l81.872,46.792H158.127L239.999,17.205z M119.999,95.997v-16h240v16H119.999z M231.999,463.997h-56v-64
				h56V463.997z M303.999,463.997h-56v-64h56V463.997z M335.999,463.997h-16v-72c0-4.418-3.582-8-8-8h-144c-4.418,0-8,3.582-8,8v72
				h-16v-352h192V463.997z"/>
		</g>
	</g>
</g>
<g>
</g>
<g>
</g>
<g>
</g>
<g>
</g>
<g>
</g>
<g>
</g>
<g>
</g>
<g>
</g>
<g>
</g>
<g>
</g>
<g>
</g>
<g>
</g>
<g>
</g>
<g>
</g>
<g>
</g>
</svg>
