<?xml version="1.0" encoding="iso-8859-1"?>
<!-- Generator: Adobe Illustrator 19.0.0, SVG Export Plug-In . SVG Version: 6.00 Build 0)  -->
<svg version="1.1" id="Capa_1" xmlns="http://www.w3.org/2000/svg" xmlns:xlink="http://www.w3.org/1999/xlink" x="0px" y="0px"
	 viewBox="0 0 480 480" style="enable-background:new 0 0 480 480;" xml:space="preserve">
<g>
	<g>
		<g>
			<path d="M472,432h-8v-24c0-4.418-3.582-8-8-8V144h8c4.418,0,8-3.582,8-8v-32c0-4.418-3.582-8-8-8H360V48h16c4.418,0,8-3.582,8-8
				V8c0-4.418-3.582-8-8-8H104c-4.418,0-8,3.582-8,8v32c0,4.418,3.582,8,8,8h16v48H16c-4.418,0-8,3.582-8,8v32c0,4.418,3.582,8,8,8
				h8v256c-4.418,0-8,3.582-8,8v24H8c-4.418,0-8,3.582-8,8v32c0,4.418,3.582,8,8,8h464c4.418,0,8-3.582,8-8v-32
				C480,435.582,476.418,432,472,432z M456,112v16h-96v-16H456z M440,144v256h-80V144H440z M112,32V16h256v16H112z M240,288
				c-30.928,0-56,25.072-56,56v56h-48V48h208v352h-48v-56C296,313.072,270.928,288,240,288z M280,344v56h-80v-56
				c0-22.091,17.909-40,40-40C262.091,304,280,321.909,280,344z M448,416v16H32v-16H448z M40,400V144h80v256H40z M24,112h96v16H24
				V112z M464,464H16v-16h448V464z"/>
			<path d="M192,80h-32c-4.418,0-8,3.582-8,8v32c0,4.418,3.582,8,8,8h32c4.418,0,8-3.582,8-8V88C200,83.582,196.418,80,192,80z
				 M184,112h-16V96h16V112z"/>
			<path d="M256,80h-32c-4.418,0-8,3.582-8,8v32c0,4.418,3.582,8,8,8h32c4.418,0,8-3.582,8-8V88C264,83.582,260.418,80,256,80z
				 M248,112h-16V96h16V112z"/>
			<path d="M192,144h-32c-4.418,0-8,3.582-8,8v32c0,4.418,3.582,8,8,8h32c4.418,0,8-3.582,8-8v-32C200,147.582,196.418,144,192,144z
				 M184,176h-16v-16h16V176z"/>
			<path d="M256,144h-32c-4.418,0-8,3.582-8,8v32c0,4.418,3.582,8,8,8h32c4.418,0,8-3.582,8-8v-32C264,147.582,260.418,144,256,144z
				 M248,176h-16v-16h16V176z"/>
			<path d="M192,208h-32c-4.418,0-8,3.582-8,8v32c0,4.418,3.582,8,8,8h32c4.418,0,8-3.582,8-8v-32C200,211.582,196.418,208,192,208z
				 M184,240h-16v-16h16V240z"/>
			<path d="M256,208h-32c-4.418,0-8,3.582-8,8v32c0,4.418,3.582,8,8,8h32c4.418,0,8-3.582,8-8v-32C264,211.582,260.418,208,256,208z
				 M248,240h-16v-16h16V240z"/>
			<path d="M288,128h32c4.418,0,8-3.582,8-8V88c0-4.418-3.582-8-8-8h-32c-4.418,0-8,3.582-8,8v32C280,124.418,283.582,128,288,128z
				 M296,96h16v16h-16V96z"/>
			<path d="M288,192h32c4.418,0,8-3.582,8-8v-32c0-4.418-3.582-8-8-8h-32c-4.418,0-8,3.582-8,8v32C280,188.418,283.582,192,288,192z
				 M296,160h16v16h-16V160z"/>
			<path d="M328,248v-32c0-4.418-3.582-8-8-8h-32c-4.418,0-8,3.582-8,8v32c0,4.418,3.582,8,8,8h32C324.418,256,328,252.418,328,248z
				 M312,240h-16v-16h16V240z"/>
			<path d="M384,208h32c4.418,0,8-3.582,8-8v-32c0-4.418-3.582-8-8-8h-32c-4.418,0-8,3.582-8,8v32C376,204.418,379.582,208,384,208z
				 M392,176h16v16h-16V176z"/>
			<path d="M384,272h32c4.418,0,8-3.582,8-8v-32c0-4.418-3.582-8-8-8h-32c-4.418,0-8,3.582-8,8v32C376,268.418,379.582,272,384,272z
				 M392,240h16v16h-16V240z"/>
			<path d="M384,336h32c4.418,0,8-3.582,8-8v-32c0-4.418-3.582-8-8-8h-32c-4.418,0-8,3.582-8,8v32C376,332.418,379.582,336,384,336z
				 M392,304h16v16h-16V304z"/>
			<path d="M96,160H64c-4.418,0-8,3.582-8,8v32c0,4.418,3.582,8,8,8h32c4.418,0,8-3.582,8-8v-32C104,163.582,100.418,160,96,160z
				 M88,192H72v-16h16V192z"/>
			<path d="M96,224H64c-4.418,0-8,3.582-8,8v32c0,4.418,3.582,8,8,8h32c4.418,0,8-3.582,8-8v-32C104,227.582,100.418,224,96,224z
				 M88,256H72v-16h16V256z"/>
			<path d="M96,288H64c-4.418,0-8,3.582-8,8v32c0,4.418,3.582,8,8,8h32c4.418,0,8-3.582,8-8v-32C104,291.582,100.418,288,96,288z
				 M88,320H72v-16h16V320z"/>
		</g>
	</g>
</g>
<g>
</g>
<g>
</g>
<g>
</g>
<g>
</g>
<g>
</g>
<g>
</g>
<g>
</g>
<g>
</g>
<g>
</g>
<g>
</g>
<g>
</g>
<g>
</g>
<g>
</g>
<g>
</g>
<g>
</g>
</svg>
