<?xml version="1.0" encoding="iso-8859-1"?>
<!-- Generator: Adobe Illustrator 19.0.0, SVG Export Plug-In . SVG Version: 6.00 Build 0)  -->
<svg version="1.1" id="Capa_1" xmlns="http://www.w3.org/2000/svg" xmlns:xlink="http://www.w3.org/1999/xlink" x="0px" y="0px"
	 viewBox="0 0 480 480" style="enable-background:new 0 0 480 480;" xml:space="preserve">
<g>
	<g>
		<g>
			<path d="M72,32H40c-4.418,0-8,3.582-8,8v32c0,4.418,3.582,8,8,8h32c4.418,0,8-3.582,8-8V40C80,35.582,76.418,32,72,32z M64,64H48
				V48h16V64z"/>
			<path d="M136,32h-32c-4.418,0-8,3.582-8,8v32c0,4.418,3.582,8,8,8h32c4.418,0,8-3.582,8-8V40C144,35.582,140.418,32,136,32z
				 M128,64h-16V48h16V64z"/>
			<path d="M200,80c4.418,0,8-3.582,8-8V40c0-4.418-3.582-8-8-8h-32c-4.418,0-8,3.582-8,8v32c0,4.418,3.582,8,8,8H200z M176,48h16
				v16h-16V48z"/>
			<path d="M72,96H40c-4.418,0-8,3.582-8,8v32c0,4.418,3.582,8,8,8h32c4.418,0,8-3.582,8-8v-32C80,99.582,76.418,96,72,96z M64,128
				H48v-16h16V128z"/>
			<path d="M136,96h-32c-4.418,0-8,3.582-8,8v32c0,4.418,3.582,8,8,8h32c4.418,0,8-3.582,8-8v-32C144,99.582,140.418,96,136,96z
				 M128,128h-16v-16h16V128z"/>
			<path d="M72,160H40c-4.418,0-8,3.582-8,8v32c0,4.418,3.582,8,8,8h32c4.418,0,8-3.582,8-8v-32C80,163.582,76.418,160,72,160z
				 M64,192H48v-16h16V192z"/>
			<path d="M136,160h-32c-4.418,0-8,3.582-8,8v32c0,4.418,3.582,8,8,8h32c4.418,0,8-3.582,8-8v-32C144,163.582,140.418,160,136,160z
				 M128,192h-16v-16h16V192z"/>
			<path d="M72,224H40c-4.418,0-8,3.582-8,8v32c0,4.418,3.582,8,8,8h32c4.418,0,8-3.582,8-8v-32C80,227.582,76.418,224,72,224z
				 M64,256H48v-16h16V256z"/>
			<path d="M136,224h-32c-4.418,0-8,3.582-8,8v32c0,4.418,3.582,8,8,8h32c4.418,0,8-3.582,8-8v-32C144,227.582,140.418,224,136,224z
				 M128,256h-16v-16h16V256z"/>
			<path d="M72,288H40c-4.418,0-8,3.582-8,8v32c0,4.418,3.582,8,8,8h32c4.418,0,8-3.582,8-8v-32C80,291.582,76.418,288,72,288z
				 M64,320H48v-16h16V320z"/>
			<path d="M136,288h-32c-4.418,0-8,3.582-8,8v32c0,4.418,3.582,8,8,8h32c4.418,0,8-3.582,8-8v-32C144,291.582,140.418,288,136,288z
				 M128,320h-16v-16h16V320z"/>
			<path d="M72,352H40c-4.418,0-8,3.582-8,8v32c0,4.418,3.582,8,8,8h32c4.418,0,8-3.582,8-8v-32C80,355.582,76.418,352,72,352z
				 M64,384H48v-16h16V384z"/>
			<path d="M136,352h-32c-4.418,0-8,3.582-8,8v32c0,4.418,3.582,8,8,8h32c4.418,0,8-3.582,8-8v-32C144,355.582,140.418,352,136,352z
				 M128,384h-16v-16h16V384z"/>
			<path d="M224,160h-32c-4.418,0-8,3.582-8,8v32c0,4.418,3.582,8,8,8h32c4.418,0,8-3.582,8-8v-32C232,163.582,228.418,160,224,160z
				 M216,192h-16v-16h16V192z"/>
			<path d="M288,160h-32c-4.418,0-8,3.582-8,8v32c0,4.418,3.582,8,8,8h32c4.418,0,8-3.582,8-8v-32C296,163.582,292.418,160,288,160z
				 M280,192h-16v-16h16V192z"/>
			<path d="M352,208c4.418,0,8-3.582,8-8v-32c0-4.418-3.582-8-8-8h-32c-4.418,0-8,3.582-8,8v32c0,4.418,3.582,8,8,8H352z M328,176
				h16v16h-16V176z"/>
			<path d="M224,224h-32c-4.418,0-8,3.582-8,8v32c0,4.418,3.582,8,8,8h32c4.418,0,8-3.582,8-8v-32C232,227.582,228.418,224,224,224z
				 M216,256h-16v-16h16V256z"/>
			<path d="M288,224h-32c-4.418,0-8,3.582-8,8v32c0,4.418,3.582,8,8,8h32c4.418,0,8-3.582,8-8v-32C296,227.582,292.418,224,288,224z
				 M280,256h-16v-16h16V256z"/>
			<path d="M224,288h-32c-4.418,0-8,3.582-8,8v32c0,4.418,3.582,8,8,8h32c4.418,0,8-3.582,8-8v-32C232,291.582,228.418,288,224,288z
				 M216,320h-16v-16h16V320z"/>
			<path d="M288,288h-32c-4.418,0-8,3.582-8,8v32c0,4.418,3.582,8,8,8h32c4.418,0,8-3.582,8-8v-32C296,291.582,292.418,288,288,288z
				 M280,320h-16v-16h16V320z"/>
			<path d="M224,352h-32c-4.418,0-8,3.582-8,8v32c0,4.418,3.582,8,8,8h32c4.418,0,8-3.582,8-8v-32C232,355.582,228.418,352,224,352z
				 M216,384h-16v-16h16V384z"/>
			<path d="M288,352h-32c-4.418,0-8,3.582-8,8v32c0,4.418,3.582,8,8,8h32c4.418,0,8-3.582,8-8v-32C296,355.582,292.418,352,288,352z
				 M280,384h-16v-16h16V384z"/>
			<path d="M472,256h-80V136c0-4.418-3.582-8-8-8H240V8c0-4.418-3.582-8-8-8H8C3.582,0,0,3.582,0,8v464c0,4.418,3.582,8,8,8h464
				c4.418,0,8-3.582,8-8V264C480,259.582,476.418,256,472,256z M160,104v24c-4.418,0-8,3.582-8,8v328H16V16h208v112h-16v-24
				c0-4.418-3.582-8-8-8h-32C163.582,96,160,99.582,160,104z M192,112v16h-16v-16H192z M312,232v24c-4.418,0-8,3.582-8,8v200H168
				V144h208v112h-16v-24c0-4.418-3.582-8-8-8h-32C315.582,224,312,227.582,312,232z M344,240v16h-16v-16H344z M464,464H320V272h144
				V464z"/>
			<path d="M344,336h32c4.418,0,8-3.582,8-8v-32c0-4.418-3.582-8-8-8h-32c-4.418,0-8,3.582-8,8v32C336,332.418,339.582,336,344,336z
				 M352,304h16v16h-16V304z"/>
			<path d="M408,336h32c4.418,0,8-3.582,8-8v-32c0-4.418-3.582-8-8-8h-32c-4.418,0-8,3.582-8,8v32C400,332.418,403.582,336,408,336z
				 M416,304h16v16h-16V304z"/>
			<path d="M344,400h32c4.418,0,8-3.582,8-8v-32c0-4.418-3.582-8-8-8h-32c-4.418,0-8,3.582-8,8v32C336,396.418,339.582,400,344,400z
				 M352,368h16v16h-16V368z"/>
			<path d="M408,400h32c4.418,0,8-3.582,8-8v-32c0-4.418-3.582-8-8-8h-32c-4.418,0-8,3.582-8,8v32C400,396.418,403.582,400,408,400z
				 M416,368h16v16h-16V368z"/>
		</g>
	</g>
</g>
<g>
</g>
<g>
</g>
<g>
</g>
<g>
</g>
<g>
</g>
<g>
</g>
<g>
</g>
<g>
</g>
<g>
</g>
<g>
</g>
<g>
</g>
<g>
</g>
<g>
</g>
<g>
</g>
<g>
</g>
</svg>
