<?xml version="1.0" encoding="iso-8859-1"?>
<!-- Generator: Adobe Illustrator 19.0.0, SVG Export Plug-In . SVG Version: 6.00 Build 0)  -->
<svg version="1.1" id="Capa_1" xmlns="http://www.w3.org/2000/svg" xmlns:xlink="http://www.w3.org/1999/xlink" x="0px" y="0px"
	 viewBox="0 0 480 480" style="enable-background:new 0 0 480 480;" xml:space="preserve">
<g>
	<g>
		<g>
			<path d="M479.944,135.728c-0.011-0.867-0.162-1.726-0.448-2.544l-48-128C430.322,2.063,427.335-0.003,424,0H56
				c-3.335-0.003-6.322,2.063-7.496,5.184l-48,128c-0.286,0.818-0.438,1.677-0.448,2.544C0.056,135.824,0,135.904,0,136v336
				c0,4.418,3.582,8,8,8h464c4.418,0,8-3.582,8-8V136C480,135.904,479.952,135.824,479.944,135.728z M61.544,16h356.912l42,112
				H19.544L61.544,16z M232,464h-24V352h24V464z M272,464h-24V352h24V464z M464,464H288V344c0-4.418-3.582-8-8-8h-80
				c-4.418,0-8,3.582-8,8v120H16V144h448V464z"/>
			<path d="M200,304h80c4.418,0,8-3.582,8-8V184c0-4.418-3.582-8-8-8h-80c-4.418,0-8,3.582-8,8v112C192,300.418,195.582,304,200,304
				z M248,192h24v40h-24V192z M248,248h24v40h-24V248z M208,192h24v40h-24V192z M208,248h24v40h-24V248z"/>
			<path d="M328,304h96c4.418,0,8-3.582,8-8V184c0-4.418-3.582-8-8-8h-96c-4.418,0-8,3.582-8,8v112C320,300.418,323.582,304,328,304
				z M384,192h32v40h-32V192z M384,248h32v40h-32V248z M336,192h32v40h-32V192z M336,248h32v40h-32V248z"/>
			<path d="M56,304h96c4.418,0,8-3.582,8-8V184c0-4.418-3.582-8-8-8H56c-4.418,0-8,3.582-8,8v112C48,300.418,51.582,304,56,304z
				 M112,192h32v40h-32V192z M112,248h32v40h-32V248z M64,192h32v40H64V192z M64,248h32v40H64V248z"/>
			<path d="M424,336h-80c-4.418,0-8,3.582-8,8v64c0,4.418,3.582,8,8,8h80c4.418,0,8-3.582,8-8v-64C432,339.582,428.418,336,424,336z
				 M376,400h-24v-16h24V400z M376,368h-24v-16h24V368z M416,400h-24v-16h24V400z M416,368h-24v-16h24V368z"/>
			<path d="M56,416h80c4.418,0,8-3.582,8-8v-64c0-4.418-3.582-8-8-8H56c-4.418,0-8,3.582-8,8v64C48,412.418,51.582,416,56,416z
				 M104,352h24v16h-24V352z M104,384h24v16h-24V384z M64,352h24v16H64V352z M64,384h24v16H64V384z"/>
		</g>
	</g>
</g>
<g>
</g>
<g>
</g>
<g>
</g>
<g>
</g>
<g>
</g>
<g>
</g>
<g>
</g>
<g>
</g>
<g>
</g>
<g>
</g>
<g>
</g>
<g>
</g>
<g>
</g>
<g>
</g>
<g>
</g>
</svg>
