<?xml version="1.0" encoding="iso-8859-1"?>
<!-- Generator: Adobe Illustrator 19.0.0, SVG Export Plug-In . SVG Version: 6.00 Build 0)  -->
<svg version="1.1" id="Capa_1" xmlns="http://www.w3.org/2000/svg" xmlns:xlink="http://www.w3.org/1999/xlink" x="0px" y="0px"
	 viewBox="0 0 480 480" style="enable-background:new 0 0 480 480;" xml:space="preserve">
<g>
	<g>
		<path d="M440,464V192h8c4.418,0,8-3.582,8-8v-32c0-4.418-3.582-8-8-8H248V48h8c4.418,0,8-3.582,8-8V8c0-4.418-3.582-8-8-8H32
			c-4.418,0-8,3.582-8,8v32c0,4.418,3.582,8,8,8h8v416H0v16h480v-16H440z M440,160v16H248v-16H440z M40,16h208v16H40V16z M232,464
			H56v-32h104v-16H56v-32h104v-16H56v-32h104v-16H56v-32h104v-16H56v-32h104v-16H56v-32h104v-16H56v-32h104v-16H56V96h104V80H56V48
			h176V464z M424,464H248v-32h104v-16H248v-32h104v-16H248v-32h104v-16H248v-32h104v-16H248v-32h104v-16H248v-32h176V464z"/>
	</g>
</g>
<g>
</g>
<g>
</g>
<g>
</g>
<g>
</g>
<g>
</g>
<g>
</g>
<g>
</g>
<g>
</g>
<g>
</g>
<g>
</g>
<g>
</g>
<g>
</g>
<g>
</g>
<g>
</g>
<g>
</g>
</svg>
