<?xml version="1.0" encoding="iso-8859-1"?>
<!-- Generator: Adobe Illustrator 19.0.0, SVG Export Plug-In . SVG Version: 6.00 Build 0)  -->
<svg version="1.1" id="Capa_1" xmlns="http://www.w3.org/2000/svg" xmlns:xlink="http://www.w3.org/1999/xlink" x="0px" y="0px"
	 viewBox="0 0 480 480" style="enable-background:new 0 0 480 480;" xml:space="preserve">
<g>
	<g>
		<path d="M472,48c4.418,0,8-3.582,8-8V8c0-4.418-3.582-8-8-8H280c-4.418,0-8,3.582-8,8v32c0,4.418,3.582,8,8,8h8v56h-96V48h8
			c4.418,0,8-3.582,8-8V8c0-4.418-3.582-8-8-8H8C3.582,0,0,3.582,0,8v32c0,4.418,3.582,8,8,8h8v416H0v16h480v-16h-16V48H472z M16,16
			h176v16H16V16z M176,464H32v-32h56v-16H32v-32h56v-16H32v-32h56v-16H32v-32h56v-16H32v-32h56v-16H32v-32h56v-16H32v-32h56v-16H32
			V96h56V80H32V48h144V464z M288,464h-96V152h96V464z M288,136h-96v-16h96V136z M448,80h-56v16h56v32h-56v16h56v32h-56v16h56v32h-56
			v16h56v32h-56v16h56v32h-56v16h56v32h-56v16h56v32h-56v16h56v32H304V48h144V80z M288,32V16h176v16H288z"/>
	</g>
</g>
<g>
</g>
<g>
</g>
<g>
</g>
<g>
</g>
<g>
</g>
<g>
</g>
<g>
</g>
<g>
</g>
<g>
</g>
<g>
</g>
<g>
</g>
<g>
</g>
<g>
</g>
<g>
</g>
<g>
</g>
</svg>
