<?xml version="1.0" encoding="iso-8859-1"?>
<!-- Generator: Adobe Illustrator 19.0.0, SVG Export Plug-In . SVG Version: 6.00 Build 0)  -->
<svg version="1.1" id="Capa_1" xmlns="http://www.w3.org/2000/svg" xmlns:xlink="http://www.w3.org/1999/xlink" x="0px" y="0px"
	 viewBox="0 0 480.006 480.006" style="enable-background:new 0 0 480.006 480.006;" xml:space="preserve">
<g>
	<g>
		<g>
			<path d="M472.003,264.006h-32v-96c0-0.168-0.088-0.312-0.096-0.48c-0.047-0.726-0.192-1.442-0.432-2.128
				c-0.075-0.255-0.163-0.506-0.264-0.752c-0.376-0.837-0.893-1.603-1.528-2.264l-45.68-45.688V93.55l58.816-22.048
				c4.14-1.543,6.245-6.151,4.701-10.291c-0.811-2.175-2.526-3.891-4.701-4.701l-64-24c-4.135-1.555-8.749,0.536-10.304,4.672
				c-0.34,0.903-0.513,1.86-0.512,2.824v76.688l-32,32v-44.688c0-0.168-0.088-0.312-0.096-0.48
				c-0.047-0.726-0.192-1.442-0.432-2.128c-0.075-0.255-0.163-0.506-0.264-0.752c-0.376-0.837-0.893-1.603-1.528-2.264v-0.04l-96-96
				c-3.124-3.123-8.188-3.123-11.312,0l-96,96v0.04c-0.635,0.661-1.152,1.427-1.528,2.264c-0.101,0.246-0.189,0.497-0.264,0.752
				c-0.239,0.684-0.385,1.397-0.432,2.12c0,0.176-0.096,0.32-0.096,0.488v12.688l-24-24V69.55l58.816-22.048
				c4.14-1.543,6.245-6.151,4.701-10.291c-0.811-2.175-2.526-3.891-4.701-4.701l-64-24c-4.125-1.582-8.752,0.48-10.334,4.606
				c-0.354,0.922-0.533,1.902-0.53,2.89v76.688l-61.648,61.648c-0.635,0.661-1.152,1.427-1.528,2.264
				c-0.101,0.246-0.189,0.497-0.264,0.752c-0.239,0.684-0.385,1.397-0.432,2.12c0,0.176-0.096,0.32-0.096,0.488v104.04H8.003
				c-4.418,0-8,3.582-8,8v200c0,4.418,3.582,8,8,8h464c4.418,0,8-3.582,8-8v-200C480.003,267.588,476.421,264.006,472.003,264.006z
				 M392.003,51.55l33.216,12.456l-33.216,12.456V51.55z M384.003,131.318l28.688,28.688h-57.376L384.003,131.318z M344.003,176.006
				h80v88h-32c-4.418,0-8,3.582-8,8v32h-32v-32c0-4.418-3.582-8-8-8V176.006z M240.003,19.318l76.688,76.688H163.315L240.003,19.318
				z M152.003,112.006h176v152h-64c-4.418,0-8,3.582-8,8v32h-32v-32c0-4.418-3.582-8-8-8h-40v-104c0-0.168-0.088-0.312-0.096-0.48
				c-0.047-0.726-0.192-1.442-0.432-2.128c-0.075-0.255-0.163-0.506-0.264-0.752c-0.376-0.837-0.893-1.603-1.528-2.264
				l-21.68-21.688V112.006z M112.003,27.55l33.216,12.456l-33.216,12.456V27.55z M104.003,107.318l44.688,44.688H59.315
				L104.003,107.318z M48.003,168.006h112v96h-24c-4.418,0-8,3.582-8,8v32h-32v-32c0-4.418-3.582-8-8-8h-40V168.006z
				 M464.003,464.006h-448v-184h64v32c0,4.418,3.582,8,8,8h48c4.418,0,8-3.582,8-8v-32h64v32c0,4.418,3.582,8,8,8h48
				c4.418,0,8-3.582,8-8v-32h64v32c0,4.418,3.582,8,8,8h48c4.418,0,8-3.582,8-8v-32h64V464.006z"/>
			<rect x="64.003" y="184.006" width="16" height="16"/>
			<rect x="96.003" y="184.006" width="16" height="16"/>
			<rect x="128.003" y="184.006" width="16" height="16"/>
			<rect x="64.003" y="216.006" width="16" height="16"/>
			<rect x="96.003" y="216.006" width="16" height="16"/>
			<rect x="128.003" y="216.006" width="16" height="16"/>
			<rect x="168.003" y="128.006" width="16" height="16"/>
			<rect x="200.003" y="128.006" width="16" height="16"/>
			<rect x="232.003" y="128.006" width="16" height="16"/>
			<rect x="264.003" y="128.006" width="16" height="16"/>
			<rect x="296.003" y="128.006" width="16" height="16"/>
			<rect x="200.003" y="160.006" width="16" height="16"/>
			<rect x="232.003" y="160.006" width="16" height="16"/>
			<rect x="264.003" y="160.006" width="16" height="16"/>
			<rect x="296.003" y="160.006" width="16" height="16"/>
			<rect x="200.003" y="192.006" width="16" height="16"/>
			<rect x="232.003" y="192.006" width="16" height="16"/>
			<rect x="264.003" y="192.006" width="16" height="16"/>
			<rect x="296.003" y="192.006" width="16" height="16"/>
			<rect x="200.003" y="224.006" width="16" height="16"/>
			<rect x="232.003" y="224.006" width="16" height="16"/>
			<rect x="264.003" y="224.006" width="16" height="16"/>
			<rect x="296.003" y="224.006" width="16" height="16"/>
			<rect x="360.003" y="192.006" width="16" height="16"/>
			<rect x="392.003" y="192.006" width="16" height="16"/>
			<rect x="360.003" y="224.006" width="16" height="16"/>
			<rect x="392.003" y="224.006" width="16" height="16"/>
		</g>
	</g>
</g>
<g>
</g>
<g>
</g>
<g>
</g>
<g>
</g>
<g>
</g>
<g>
</g>
<g>
</g>
<g>
</g>
<g>
</g>
<g>
</g>
<g>
</g>
<g>
</g>
<g>
</g>
<g>
</g>
<g>
</g>
</svg>
