<?xml version="1.0" encoding="iso-8859-1"?>
<!-- Generator: Adobe Illustrator 19.0.0, SVG Export Plug-In . SVG Version: 6.00 Build 0)  -->
<svg version="1.1" id="Capa_1" xmlns="http://www.w3.org/2000/svg" xmlns:xlink="http://www.w3.org/1999/xlink" x="0px" y="0px"
	 viewBox="0 0 480.001 480.001" style="enable-background:new 0 0 480.001 480.001;" xml:space="preserve">
<g>
	<g>
		<path d="M476.241,289.217l-124.24-77.648v-51.568h16c4.418,0,8-3.582,8-8c0-2.758-1.421-5.322-3.76-6.784l-124.24-77.648V32.001
			h24v-16h-24v-16h-16v16h-24v16h24v35.568l-124.24,77.648c-3.747,2.342-4.886,7.277-2.544,11.024
			c1.462,2.339,4.026,3.76,6.784,3.76h16v51.568L3.761,289.217c-3.747,2.342-4.886,7.277-2.544,11.024
			c1.462,2.339,4.026,3.76,6.784,3.76h8v168c0,4.418,3.582,8,8,8h432c4.418,0,8-3.582,8-8v-168h8c4.418,0,8-3.582,8-8
			C480.001,293.242,478.58,290.678,476.241,289.217z M128.001,464.001h-96v-160h96V464.001z M128.001,288.001H35.897l92.104-57.6
			V288.001z M352.001,230.4l92.104,57.6h-92.104V230.4z M288.001,464.001h-96v-80h96V464.001z M192.801,368.001
			c3.827-18.611,20.199-31.976,39.2-32h16c19.001,0.024,35.373,13.389,39.2,32H192.801z M336.001,464.001h-32v-88
			c-0.035-30.913-25.087-55.965-56-56h-16c-30.913,0.035-55.965,25.087-56,56v88h-32v-304h192V464.001z M139.897,144.001
			l100.104-62.568l100.104,62.568H139.897z M448.001,464.001h-96v-160h96V464.001z"/>
	</g>
</g>
<g>
	<g>
		<path d="M240.001,176.001c-35.346,0-64,28.654-64,64c0.04,35.33,28.67,63.96,64,64c35.346,0,64-28.654,64-64
			C304.001,204.654,275.347,176.001,240.001,176.001z M232.001,287.281c-20.1-3.435-35.845-19.18-39.28-39.28h39.28V287.281z
			 M232.001,232.001h-39.28c3.435-20.1,19.18-35.845,39.28-39.28V232.001z M248.001,192.721c20.1,3.435,35.845,19.18,39.28,39.28
			h-39.28V192.721z M248.001,287.281v-39.28h39.28C283.846,268.101,268.101,283.845,248.001,287.281z"/>
	</g>
</g>
<g>
	<g>
		<rect x="368.001" y="320.001" width="64" height="16"/>
	</g>
</g>
<g>
	<g>
		<rect x="368.001" y="352.001" width="64" height="16"/>
	</g>
</g>
<g>
	<g>
		<rect x="368.001" y="384.001" width="64" height="16"/>
	</g>
</g>
<g>
	<g>
		<rect x="368.001" y="416.001" width="64" height="16"/>
	</g>
</g>
<g>
	<g>
		<rect x="48.001" y="320.001" width="64" height="16"/>
	</g>
</g>
<g>
	<g>
		<rect x="48.001" y="352.001" width="64" height="16"/>
	</g>
</g>
<g>
	<g>
		<rect x="48.001" y="384.001" width="64" height="16"/>
	</g>
</g>
<g>
	<g>
		<rect x="48.001" y="416.001" width="64" height="16"/>
	</g>
</g>
<g>
</g>
<g>
</g>
<g>
</g>
<g>
</g>
<g>
</g>
<g>
</g>
<g>
</g>
<g>
</g>
<g>
</g>
<g>
</g>
<g>
</g>
<g>
</g>
<g>
</g>
<g>
</g>
<g>
</g>
</svg>
