<?xml version="1.0" encoding="iso-8859-1"?>
<!-- Generator: Adobe Illustrator 19.0.0, SVG Export Plug-In . SVG Version: 6.00 Build 0)  -->
<svg version="1.1" id="Capa_1" xmlns="http://www.w3.org/2000/svg" xmlns:xlink="http://www.w3.org/1999/xlink" x="0px" y="0px"
	 viewBox="0 0 480 480" style="enable-background:new 0 0 480 480;" xml:space="preserve">
<g>
	<g>
		<rect x="176" y="176" width="128" height="16"/>
	</g>
</g>
<g>
	<g>
		<rect x="176" y="224" width="128" height="16"/>
	</g>
</g>
<g>
	<g>
		<rect x="176" y="272" width="128" height="16"/>
	</g>
</g>
<g>
	<g>
		<polygon points="248,48 248,32 232,32 232,48 216,48 216,64 232,64 232,80 248,80 248,64 264,64 264,48 		"/>
	</g>
</g>
<g>
	<g>
		<path d="M456,464V240h8c4.418,0,8-3.582,8-8v-32c0-4.418-3.582-8-8-8H360v-48h16c4.418,0,8-3.582,8-8v-32c0-4.418-3.582-8-8-8h-16
			V8c0-4.418-3.582-8-8-8H128c-4.418,0-8,3.582-8,8v88h-16c-4.418,0-8,3.582-8,8v32c0,4.418,3.582,8,8,8h16v48H16
			c-4.418,0-8,3.582-8,8v32c0,4.418,3.582,8,8,8h8v224H0v16h480v-16H456z M120,464H40v-32h48v-16H40v-32h48v-16H40v-32h48v-16H40
			v-32h48v-16H40v-32h80V464z M120,224H24v-16h96V224z M456,208v16h-96v-16H456z M136,16h208v80H136V16z M112,128v-16h256v16H112z
			 M232,464h-40V336h40V464z M288,464h-40V336h40V464z M344,464h-40V328c0-4.418-3.582-8-8-8H184c-4.418,0-8,3.582-8,8v136h-40V144
			h208V464z M440,272h-48v16h48v32h-48v16h48v32h-48v16h48v32h-48v16h48v32h-80V240h80V272z"/>
	</g>
</g>
<g>
</g>
<g>
</g>
<g>
</g>
<g>
</g>
<g>
</g>
<g>
</g>
<g>
</g>
<g>
</g>
<g>
</g>
<g>
</g>
<g>
</g>
<g>
</g>
<g>
</g>
<g>
</g>
<g>
</g>
</svg>
