<?xml version="1.0" encoding="iso-8859-1"?>
<!-- Generator: Adobe Illustrator 19.0.0, SVG Export Plug-In . SVG Version: 6.00 Build 0)  -->
<svg version="1.1" id="Capa_1" xmlns="http://www.w3.org/2000/svg" xmlns:xlink="http://www.w3.org/1999/xlink" x="0px" y="0px"
	 viewBox="0 0 480 480" style="enable-background:new 0 0 480 480;" xml:space="preserve">
<g>
	<g>
		<g>
			<path d="M472,128H336V8c0-4.418-3.582-8-8-8H8C3.582,0,0,3.582,0,8v464c0,4.418,3.582,8,8,8h464c4.418,0,8-3.582,8-8V136
				C480,131.582,476.418,128,472,128z M144,464H16V16h128V464z M376,464H248v-80h128V464z M464,464h-72v-88c0-4.418-3.582-8-8-8H240
				c-4.418,0-8,3.582-8,8v88h-72V16h160v120c0,4.418,3.582,8,8,8h136V464z"/>
			<polygon points="248,32 232,32 232,72 192,72 192,88 232,88 232,128 248,128 248,88 288,88 288,72 248,72 			"/>
			<rect x="176" y="160" width="16" height="16"/>
			<rect x="208" y="160" width="16" height="16"/>
			<rect x="240" y="160" width="16" height="16"/>
			<rect x="272" y="160" width="16" height="16"/>
			<rect x="304" y="160" width="16" height="16"/>
			<rect x="336" y="160" width="16" height="16"/>
			<rect x="368" y="160" width="16" height="16"/>
			<rect x="400" y="160" width="16" height="16"/>
			<rect x="432" y="160" width="16" height="16"/>
			<rect x="176" y="192" width="16" height="16"/>
			<rect x="208" y="192" width="16" height="16"/>
			<rect x="240" y="192" width="16" height="16"/>
			<rect x="272" y="192" width="16" height="16"/>
			<rect x="304" y="192" width="16" height="16"/>
			<rect x="336" y="192" width="16" height="16"/>
			<rect x="368" y="192" width="16" height="16"/>
			<rect x="400" y="192" width="16" height="16"/>
			<rect x="432" y="192" width="16" height="16"/>
			<rect x="176" y="224" width="16" height="16"/>
			<rect x="208" y="224" width="16" height="16"/>
			<rect x="240" y="224" width="16" height="16"/>
			<rect x="272" y="224" width="16" height="16"/>
			<rect x="304" y="224" width="16" height="16"/>
			<rect x="336" y="224" width="16" height="16"/>
			<rect x="368" y="224" width="16" height="16"/>
			<rect x="400" y="224" width="16" height="16"/>
			<rect x="432" y="224" width="16" height="16"/>
			<rect x="176" y="256" width="16" height="16"/>
			<rect x="208" y="256" width="16" height="16"/>
			<rect x="240" y="256" width="16" height="16"/>
			<rect x="272" y="256" width="16" height="16"/>
			<rect x="304" y="256" width="16" height="16"/>
			<rect x="336" y="256" width="16" height="16"/>
			<rect x="368" y="256" width="16" height="16"/>
			<rect x="400" y="256" width="16" height="16"/>
			<rect x="432" y="256" width="16" height="16"/>
			<rect x="176" y="288" width="16" height="16"/>
			<rect x="208" y="288" width="16" height="16"/>
			<rect x="240" y="288" width="16" height="16"/>
			<rect x="272" y="288" width="16" height="16"/>
			<rect x="304" y="288" width="16" height="16"/>
			<rect x="336" y="288" width="16" height="16"/>
			<rect x="368" y="288" width="16" height="16"/>
			<rect x="400" y="288" width="16" height="16"/>
			<rect x="432" y="288" width="16" height="16"/>
			<rect x="176" y="320" width="16" height="16"/>
			<rect x="208" y="320" width="16" height="16"/>
			<rect x="240" y="320" width="16" height="16"/>
			<rect x="272" y="320" width="16" height="16"/>
			<rect x="304" y="320" width="16" height="16"/>
			<rect x="336" y="320" width="16" height="16"/>
			<rect x="368" y="320" width="16" height="16"/>
			<rect x="400" y="320" width="16" height="16"/>
			<rect x="432" y="320" width="16" height="16"/>
			<rect x="408" y="368" width="40" height="16"/>
			<rect x="408" y="400" width="40" height="16"/>
			<rect x="408" y="432" width="40" height="16"/>
			<rect x="176" y="368" width="40" height="16"/>
			<rect x="176" y="400" width="40" height="16"/>
			<rect x="176" y="432" width="40" height="16"/>
			<rect x="32" y="160" width="96" height="16"/>
			<rect x="32" y="192" width="96" height="16"/>
			<rect x="32" y="224" width="96" height="16"/>
			<rect x="32" y="256" width="96" height="16"/>
			<rect x="32" y="288" width="96" height="16"/>
			<rect x="32" y="320" width="96" height="16"/>
			<rect x="32" y="352" width="96" height="16"/>
			<rect x="32" y="384" width="96" height="16"/>
			<rect x="32" y="416" width="96" height="16"/>
			<path d="M80,128c26.51,0,48-21.49,48-48c-0.026-26.499-21.501-47.974-48-48c-26.51,0-48,21.49-48,48S53.49,128,80,128z M80,48
				c17.673,0,32,14.327,32,32s-14.327,32-32,32S48,97.673,48,80S62.327,48,80,48z"/>
		</g>
	</g>
</g>
<g>
</g>
<g>
</g>
<g>
</g>
<g>
</g>
<g>
</g>
<g>
</g>
<g>
</g>
<g>
</g>
<g>
</g>
<g>
</g>
<g>
</g>
<g>
</g>
<g>
</g>
<g>
</g>
<g>
</g>
</svg>
