<?xml version="1.0" encoding="iso-8859-1"?>
<!-- Generator: Adobe Illustrator 19.0.0, SVG Export Plug-In . SVG Version: 6.00 Build 0)  -->
<svg version="1.1" id="Capa_1" xmlns="http://www.w3.org/2000/svg" xmlns:xlink="http://www.w3.org/1999/xlink" x="0px" y="0px"
	 viewBox="0 0 480 480" style="enable-background:new 0 0 480 480;" xml:space="preserve">
<g>
	<g>
		<g>
			<path d="M472,96H320V8c0-4.418-3.582-8-8-8H8C3.582,0,0,3.582,0,8v464c0,4.418,3.582,8,8,8h464c4.418,0,8-3.582,8-8V104
				C480,99.582,476.418,96,472,96z M152,464H80V336h72V464z M240,464h-72V336h72V464z M304,464h-48V328c0-4.418-3.582-8-8-8H72
				c-4.418,0-8,3.582-8,8v136H16V16h288V464z M464,464H320V112h144V464z"/>
			<path d="M344,176h32c4.418,0,8-3.582,8-8v-32c0-4.418-3.582-8-8-8h-32c-4.418,0-8,3.582-8,8v32C336,172.418,339.582,176,344,176z
				 M352,144h16v16h-16V144z"/>
			<path d="M408,176h32c4.418,0,8-3.582,8-8v-32c0-4.418-3.582-8-8-8h-32c-4.418,0-8,3.582-8,8v32C400,172.418,403.582,176,408,176z
				 M416,144h16v16h-16V144z"/>
			<path d="M344,240h32c4.418,0,8-3.582,8-8v-32c0-4.418-3.582-8-8-8h-32c-4.418,0-8,3.582-8,8v32C336,236.418,339.582,240,344,240z
				 M352,208h16v16h-16V208z"/>
			<path d="M408,240h32c4.418,0,8-3.582,8-8v-32c0-4.418-3.582-8-8-8h-32c-4.418,0-8,3.582-8,8v32C400,236.418,403.582,240,408,240z
				 M416,208h16v16h-16V208z"/>
			<path d="M344,304h32c4.418,0,8-3.582,8-8v-32c0-4.418-3.582-8-8-8h-32c-4.418,0-8,3.582-8,8v32C336,300.418,339.582,304,344,304z
				 M352,272h16v16h-16V272z"/>
			<path d="M408,304h32c4.418,0,8-3.582,8-8v-32c0-4.418-3.582-8-8-8h-32c-4.418,0-8,3.582-8,8v32C400,300.418,403.582,304,408,304z
				 M416,272h16v16h-16V272z"/>
			<path d="M344,368h32c4.418,0,8-3.582,8-8v-32c0-4.418-3.582-8-8-8h-32c-4.418,0-8,3.582-8,8v32C336,364.418,339.582,368,344,368z
				 M352,336h16v16h-16V336z"/>
			<path d="M408,368h32c4.418,0,8-3.582,8-8v-32c0-4.418-3.582-8-8-8h-32c-4.418,0-8,3.582-8,8v32C400,364.418,403.582,368,408,368z
				 M416,336h16v16h-16V336z"/>
			<path d="M344,432h32c4.418,0,8-3.582,8-8v-32c0-4.418-3.582-8-8-8h-32c-4.418,0-8,3.582-8,8v32C336,428.418,339.582,432,344,432z
				 M352,400h16v16h-16V400z"/>
			<path d="M408,432h32c4.418,0,8-3.582,8-8v-32c0-4.418-3.582-8-8-8h-32c-4.418,0-8,3.582-8,8v32C400,428.418,403.582,432,408,432z
				 M416,400h16v16h-16V400z"/>
			<path d="M72,288h176c4.418,0,8-3.582,8-8v-32c0-4.418-3.582-8-8-8H72c-4.418,0-8,3.582-8,8v32C64,284.418,67.582,288,72,288z
				 M80,256h160v16H80V256z"/>
			<path d="M72,224h176c4.418,0,8-3.582,8-8v-32c0-4.418-3.582-8-8-8H72c-4.418,0-8,3.582-8,8v32C64,220.418,67.582,224,72,224z
				 M80,192h160v16H80V192z"/>
			<path d="M72,160h176c4.418,0,8-3.582,8-8v-32c0-4.418-3.582-8-8-8H72c-4.418,0-8,3.582-8,8v32C64,156.418,67.582,160,72,160z
				 M80,128h160v16H80V128z"/>
			<path d="M72,96h176c4.418,0,8-3.582,8-8V56c0-4.418-3.582-8-8-8H72c-4.418,0-8,3.582-8,8v32C64,92.418,67.582,96,72,96z M80,64
				h160v16H80V64z"/>
		</g>
	</g>
</g>
<g>
</g>
<g>
</g>
<g>
</g>
<g>
</g>
<g>
</g>
<g>
</g>
<g>
</g>
<g>
</g>
<g>
</g>
<g>
</g>
<g>
</g>
<g>
</g>
<g>
</g>
<g>
</g>
<g>
</g>
</svg>
