<?xml version="1.0" encoding="iso-8859-1"?>
<!-- Generator: Adobe Illustrator 19.0.0, SVG Export Plug-In . SVG Version: 6.00 Build 0)  -->
<svg version="1.1" id="Capa_1" xmlns="http://www.w3.org/2000/svg" xmlns:xlink="http://www.w3.org/1999/xlink" x="0px" y="0px"
	 viewBox="0 0 479.797 479.797" style="enable-background:new 0 0 479.797 479.797;" xml:space="preserve">
<g>
	<g>
		<g>
			<path d="M79.898,127.797c0.026,26.499,21.501,47.974,48,48c26.51,0,48-21.49,48-48s-21.49-48-48-48
				C101.389,79.797,79.898,101.287,79.898,127.797z M159.898,127.797c0,17.673-14.327,32-32,32s-32-14.327-32-32s14.327-32,32-32
				S159.898,110.124,159.898,127.797z"/>
			<path d="M111.898,207.797h-64c-4.418,0-8,3.582-8,8v80c0,4.418,3.582,8,8,8h64c4.418,0,8-3.582,8-8v-80
				C119.898,211.378,116.317,207.797,111.898,207.797z M71.898,287.797h-16v-24h16V287.797z M71.898,247.797h-16v-24h16V247.797z
				 M103.898,287.797h-16v-24h16V287.797z M103.898,247.797h-16v-24h16V247.797z"/>
			<path d="M135.898,215.797v80c0,4.418,3.582,8,8,8h64c4.418,0,8-3.582,8-8v-80c0-4.418-3.582-8-8-8h-64
				C139.48,207.797,135.898,211.378,135.898,215.797z M183.898,223.797h16v24h-16V223.797z M183.898,263.797h16v24h-16V263.797z
				 M151.898,223.797h16v24h-16V223.797z M151.898,263.797h16v24h-16V263.797z"/>
			<path d="M207.898,351.797h-64c-4.418,0-8,3.582-8,8v48c0,4.418,3.582,8,8,8h64c4.418,0,8-3.582,8-8v-48
				C215.898,355.378,212.317,351.797,207.898,351.797z M167.898,399.797h-16v-8h16V399.797z M167.898,375.797h-16v-8h16V375.797z
				 M199.898,399.797h-16v-8h16V399.797z M199.898,375.797h-16v-8h16V375.797z"/>
			<path d="M470.45,163.213l-112-160c-2.803-3.619-8.009-4.28-11.628-1.476c-0.552,0.428-1.048,0.924-1.476,1.476L239.898,153.845
				L134.45,3.213c-2.803-3.619-8.009-4.28-11.628-1.476c-0.552,0.428-1.048,0.924-1.476,1.476l-112,160
				c-0.941,1.343-1.447,2.944-1.448,4.584v304c0,4.418,3.582,8,8,8h448c4.418,0,8-3.582,8-8v-304
				C471.897,166.156,471.392,164.556,470.45,163.213z M103.898,463.797h-48v-96h48V463.797z M231.898,463.797h-112v-104
				c0-4.418-3.582-8-8-8h-64c-4.418,0-8,3.582-8,8v104h-16v-293.48l104-148.568l104,148.568V463.797z M327.898,463.797h-48v-96h48
				V463.797z M455.898,463.797h-112v-104c0-4.418-3.582-8-8-8h-64c-4.418,0-8,3.582-8,8v104h-16v-293.48l104-148.568l104,148.568
				V463.797z"/>
			<path d="M303.898,127.797c0,26.51,21.49,48,48,48c26.51,0,48-21.49,48-48s-21.49-48-48-48
				C325.4,79.823,303.925,101.298,303.898,127.797z M383.898,127.797c0,17.673-14.327,32-32,32c-17.673,0-32-14.327-32-32
				s14.327-32,32-32C369.572,95.797,383.898,110.124,383.898,127.797z"/>
			<path d="M335.898,207.797h-64c-4.418,0-8,3.582-8,8v80c0,4.418,3.582,8,8,8h64c4.418,0,8-3.582,8-8v-80
				C343.898,211.378,340.317,207.797,335.898,207.797z M295.898,287.797h-16v-24h16V287.797z M295.898,247.797h-16v-24h16V247.797z
				 M327.898,287.797h-16v-24h16V287.797z M327.898,247.797h-16v-24h16V247.797z"/>
			<path d="M359.898,215.797v80c0,4.418,3.582,8,8,8h64c4.418,0,8-3.582,8-8v-80c0-4.418-3.582-8-8-8h-64
				C363.48,207.797,359.898,211.378,359.898,215.797z M407.898,223.797h16v24h-16V223.797z M407.898,263.797h16v24h-16V263.797z
				 M375.898,223.797h16v24h-16V223.797z M375.898,263.797h16v24h-16V263.797z"/>
			<path d="M431.898,351.797h-64c-4.418,0-8,3.582-8,8v48c0,4.418,3.582,8,8,8h64c4.418,0,8-3.582,8-8v-48
				C439.898,355.378,436.317,351.797,431.898,351.797z M391.898,399.797h-16v-8h16V399.797z M391.898,375.797h-16v-8h16V375.797z
				 M423.898,399.797h-16v-8h16V399.797z M423.898,375.797h-16v-8h16V375.797z"/>
		</g>
	</g>
</g>
<g>
</g>
<g>
</g>
<g>
</g>
<g>
</g>
<g>
</g>
<g>
</g>
<g>
</g>
<g>
</g>
<g>
</g>
<g>
</g>
<g>
</g>
<g>
</g>
<g>
</g>
<g>
</g>
<g>
</g>
</svg>
