<?xml version="1.0" encoding="iso-8859-1"?>
<!-- Generator: Adobe Illustrator 19.0.0, SVG Export Plug-In . SVG Version: 6.00 Build 0)  -->
<svg version="1.1" id="Capa_1" xmlns="http://www.w3.org/2000/svg" xmlns:xlink="http://www.w3.org/1999/xlink" x="0px" y="0px"
	 viewBox="0 0 480 480" style="enable-background:new 0 0 480 480;" xml:space="preserve">
<g>
	<g>
		<g>
			<path d="M472,352h-72v-16h16c4.418,0,8-3.582,8-8v-32c0-4.418-3.582-8-8-8h-16V8c0-4.418-3.582-8-8-8H24c-4.418,0-8,3.582-8,8
				v280H8c-4.418,0-8,3.582-8,8v32c0,4.418,3.582,8,8,8h8v128H8v16h448v-16h-24v-32h40c4.418,0,8-3.582,8-8v-64
				C480,355.582,476.418,352,472,352z M144,16h240v272H144V16z M32,16h96v272H32V16z M16,304h392v16H16V304z M128,464H32V336h96V464
				z M328,464H200v-80h128V464z M384,464h-40v-88c0-4.418-3.582-8-8-8H192c-4.418,0-8,3.582-8,8v88h-40V336h240v16h-8
				c-4.418,0-8,3.582-8,8v64c0,4.418,3.582,8,8,8h8V464z M416,464h-16v-32h16V464z M464,416h-80v-48h80V416z"/>
			<rect x="48" y="48" width="64" height="16"/>
			<rect x="48" y="112" width="64" height="16"/>
			<rect x="48" y="176" width="64" height="16"/>
			<rect x="48" y="240" width="64" height="16"/>
			<rect x="48" y="368" width="64" height="16"/>
			<rect x="48" y="400" width="64" height="16"/>
			<rect x="48" y="432" width="64" height="16"/>
			<rect x="48" y="208" width="64" height="16"/>
			<rect x="48" y="144" width="64" height="16"/>
			<rect x="48" y="80" width="64" height="16"/>
			<rect x="160" y="48" width="16" height="16"/>
			<rect x="192" y="48" width="16" height="16"/>
			<rect x="224" y="48" width="16" height="16"/>
			<rect x="256" y="48" width="16" height="16"/>
			<rect x="288" y="48" width="16" height="16"/>
			<rect x="320" y="48" width="16" height="16"/>
			<rect x="352" y="48" width="16" height="16"/>
			<rect x="160" y="80" width="16" height="16"/>
			<rect x="192" y="80" width="16" height="16"/>
			<rect x="224" y="80" width="16" height="16"/>
			<rect x="256" y="80" width="16" height="16"/>
			<rect x="288" y="80" width="16" height="16"/>
			<rect x="320" y="80" width="16" height="16"/>
			<rect x="352" y="80" width="16" height="16"/>
			<rect x="160" y="112" width="16" height="16"/>
			<rect x="192" y="112" width="16" height="16"/>
			<rect x="224" y="112" width="16" height="16"/>
			<rect x="256" y="112" width="16" height="16"/>
			<rect x="288" y="112" width="16" height="16"/>
			<rect x="320" y="112" width="16" height="16"/>
			<rect x="352" y="112" width="16" height="16"/>
			<rect x="160" y="144" width="16" height="16"/>
			<rect x="192" y="144" width="16" height="16"/>
			<rect x="224" y="144" width="16" height="16"/>
			<rect x="256" y="144" width="16" height="16"/>
			<rect x="288" y="144" width="16" height="16"/>
			<rect x="320" y="144" width="16" height="16"/>
			<rect x="352" y="144" width="16" height="16"/>
			<rect x="160" y="176" width="16" height="16"/>
			<rect x="192" y="176" width="16" height="16"/>
			<rect x="224" y="176" width="16" height="16"/>
			<rect x="256" y="176" width="16" height="16"/>
			<rect x="288" y="176" width="16" height="16"/>
			<rect x="320" y="176" width="16" height="16"/>
			<rect x="352" y="176" width="16" height="16"/>
			<rect x="160" y="208" width="16" height="16"/>
			<rect x="192" y="208" width="16" height="16"/>
			<rect x="224" y="208" width="16" height="16"/>
			<rect x="256" y="208" width="16" height="16"/>
			<rect x="288" y="208" width="16" height="16"/>
			<rect x="320" y="208" width="16" height="16"/>
			<rect x="352" y="208" width="16" height="16"/>
			<rect x="160" y="240" width="16" height="16"/>
			<rect x="192" y="240" width="16" height="16"/>
			<rect x="224" y="240" width="16" height="16"/>
			<rect x="256" y="240" width="16" height="16"/>
			<rect x="288" y="240" width="16" height="16"/>
			<rect x="320" y="240" width="16" height="16"/>
			<rect x="352" y="240" width="16" height="16"/>
			<rect x="416" y="384" width="16" height="16"/>
			<rect x="440" y="384" width="16" height="16"/>
			<rect x="392" y="384" width="16" height="16"/>
		</g>
	</g>
</g>
<g>
</g>
<g>
</g>
<g>
</g>
<g>
</g>
<g>
</g>
<g>
</g>
<g>
</g>
<g>
</g>
<g>
</g>
<g>
</g>
<g>
</g>
<g>
</g>
<g>
</g>
<g>
</g>
<g>
</g>
</svg>
