<?xml version="1.0" encoding="iso-8859-1"?>
<!-- Generator: Adobe Illustrator 19.0.0, SVG Export Plug-In . SVG Version: 6.00 Build 0)  -->
<svg version="1.1" id="Capa_1" xmlns="http://www.w3.org/2000/svg" xmlns:xlink="http://www.w3.org/1999/xlink" x="0px" y="0px"
	 viewBox="0 0 480 480" style="enable-background:new 0 0 480 480;" xml:space="preserve">
<g>
	<g>
		<path d="M464,168H360v-24h16c4.418,0,8-3.582,8-8v-32c0-4.418-3.582-8-8-8h-40V56c0-4.418-3.582-8-8-8h-48V8c0-4.418-3.582-8-8-8
			h-64c-4.418,0-8,3.582-8,8v40h-48c-4.418,0-8,3.582-8,8v40h-40c-4.418,0-8,3.582-8,8v32c0,4.418,3.582,8,8,8h16v24H16
			c-4.418,0-8,3.582-8,8v32c0,4.418,3.582,8,8,8h8v256c0,4.418,3.582,8,8,8h416c4.418,0,8-3.582,8-8V216h8c4.418,0,8-3.582,8-8v-32
			C472,171.582,468.418,168,464,168z M120,464H40V216h80V464z M120,200H24v-16h96V200z M216,16h48v32h-48V16z M160,64h160v32H160V64
			z M112,128v-16h256v16H112z M232,464h-32V360h32V464z M280,464h-32V360h32V464z M344,464h-48V352c0-4.418-3.582-8-8-8h-96
			c-4.418,0-8,3.582-8,8v112h-48V144h208V464z M440,464h-80V216h80V464z M456,200h-96v-16h96V200z"/>
	</g>
</g>
<g>
	<g>
		<path d="M192,152h-32c-4.418,0-8,3.582-8,8v96c0,4.418,3.582,8,8,8h32c4.418,0,8-3.582,8-8v-96C200,155.582,196.418,152,192,152z
			 M184,248h-16v-80h16V248z"/>
	</g>
</g>
<g>
	<g>
		<path d="M256,152h-32c-4.418,0-8,3.582-8,8v96c0,4.418,3.582,8,8,8h32c4.418,0,8-3.582,8-8v-96C264,155.582,260.418,152,256,152z
			 M248,248h-16v-80h16V248z"/>
	</g>
</g>
<g>
	<g>
		<path d="M320,280H160c-4.418,0-8,3.582-8,8v32c0,4.418,3.582,8,8,8h160c4.418,0,8-3.582,8-8v-32C328,283.582,324.418,280,320,280z
			 M312,312H168v-16h144V312z"/>
	</g>
</g>
<g>
	<g>
		<path d="M320,152h-32c-4.418,0-8,3.582-8,8v96c0,4.418,3.582,8,8,8h32c4.418,0,8-3.582,8-8v-96C328,155.582,324.418,152,320,152z
			 M312,248h-16v-80h16V248z"/>
	</g>
</g>
<g>
	<g>
		<path d="M416,232h-32c-4.418,0-8,3.582-8,8v160c0,4.418,3.582,8,8,8h32c4.418,0,8-3.582,8-8V240C424,235.582,420.418,232,416,232z
			 M408,392h-16V248h16V392z"/>
	</g>
</g>
<g>
	<g>
		<path d="M96,232H64c-4.418,0-8,3.582-8,8v160c0,4.418,3.582,8,8,8h32c4.418,0,8-3.582,8-8V240C104,235.582,100.418,232,96,232z
			 M88,392H72V248h16V392z"/>
	</g>
</g>
<g>
</g>
<g>
</g>
<g>
</g>
<g>
</g>
<g>
</g>
<g>
</g>
<g>
</g>
<g>
</g>
<g>
</g>
<g>
</g>
<g>
</g>
<g>
</g>
<g>
</g>
<g>
</g>
<g>
</g>
</svg>
