<?xml version="1.0" encoding="iso-8859-1"?>
<!-- Generator: Adobe Illustrator 19.0.0, SVG Export Plug-In . SVG Version: 6.00 Build 0)  -->
<svg version="1.1" id="Capa_1" xmlns="http://www.w3.org/2000/svg" xmlns:xlink="http://www.w3.org/1999/xlink" x="0px" y="0px"
	 viewBox="0 0 480 480" style="enable-background:new 0 0 480 480;" xml:space="preserve">
<g>
	<g>
		<g>
			<path d="M472,128H352V96h16c4.418,0,8-3.582,8-8c0-2.758-1.421-5.322-3.76-6.784l-128-80c-2.594-1.621-5.886-1.621-8.48,0
				l-128,80c-3.747,2.342-4.886,7.277-2.544,11.024C106.678,94.579,109.242,96,112,96h16v32H8c-4.418,0-8,3.582-8,8v336
				c0,4.418,3.582,8,8,8h464c4.418,0,8-3.582,8-8V136C480,131.582,476.418,128,472,128z M128,464H16V240h112V464z M128,224H16v-80
				h112V224z M280,464h-80v-72c0-22.091,17.909-40,40-40c22.091,0,40,17.909,40,40V464z M336,464h-40v-72c0-30.928-25.072-56-56-56
				c-30.928,0-56,25.072-56,56v72h-40V144h192V464z M336,128H144V96h192V128z M139.896,80L240,17.432L340.104,80H139.896z M464,464
				H352V240h112V464z M464,224H352v-80h112V224z"/>
			<path d="M240,256c26.51,0,48-21.49,48-48c0-26.51-21.49-48-48-48c-26.51,0-48,21.49-48,48
				C192.026,234.499,213.501,255.974,240,256z M240,176c17.673,0,32,14.327,32,32s-14.327,32-32,32c-17.673,0-32-14.327-32-32
				S222.327,176,240,176z"/>
			<path d="M240,216h24v-16h-16v-16h-16v24C232,212.418,235.582,216,240,216z"/>
			<rect x="32" y="256" width="16" height="16"/>
			<rect x="64" y="256" width="16" height="16"/>
			<rect x="96" y="256" width="16" height="16"/>
			<rect x="32" y="288" width="16" height="16"/>
			<rect x="64" y="288" width="16" height="16"/>
			<rect x="96" y="288" width="16" height="16"/>
			<rect x="32" y="320" width="16" height="16"/>
			<rect x="64" y="320" width="16" height="16"/>
			<rect x="96" y="320" width="16" height="16"/>
			<rect x="32" y="352" width="16" height="16"/>
			<rect x="64" y="352" width="16" height="16"/>
			<rect x="96" y="352" width="16" height="16"/>
			<rect x="32" y="384" width="16" height="16"/>
			<rect x="64" y="384" width="16" height="16"/>
			<rect x="96" y="384" width="16" height="16"/>
			<rect x="368" y="256" width="16" height="16"/>
			<rect x="400" y="256" width="16" height="16"/>
			<rect x="432" y="256" width="16" height="16"/>
			<rect x="368" y="288" width="16" height="16"/>
			<rect x="400" y="288" width="16" height="16"/>
			<rect x="432" y="288" width="16" height="16"/>
			<rect x="368" y="320" width="16" height="16"/>
			<rect x="400" y="320" width="16" height="16"/>
			<rect x="432" y="320" width="16" height="16"/>
			<rect x="368" y="352" width="16" height="16"/>
			<rect x="400" y="352" width="16" height="16"/>
			<rect x="432" y="352" width="16" height="16"/>
			<rect x="368" y="384" width="16" height="16"/>
			<rect x="400" y="384" width="16" height="16"/>
			<rect x="432" y="384" width="16" height="16"/>
			<rect x="32" y="160" width="80" height="16"/>
			<rect x="32" y="192" width="80" height="16"/>
			<rect x="368" y="160" width="80" height="16"/>
			<rect x="368" y="192" width="80" height="16"/>
			<rect x="160" y="272" width="160" height="16"/>
			<rect x="160" y="304" width="160" height="16"/>
		</g>
	</g>
</g>
<g>
</g>
<g>
</g>
<g>
</g>
<g>
</g>
<g>
</g>
<g>
</g>
<g>
</g>
<g>
</g>
<g>
</g>
<g>
</g>
<g>
</g>
<g>
</g>
<g>
</g>
<g>
</g>
<g>
</g>
</svg>
